SplineFontDB: 3.0
FontName: DOF-2-Italic
FullName: DOF-2-Italic
FamilyName: DOF-2
Weight: Italic

StartChar: exclam
Encoding: 33 33 1
Width: 303
VWidth: 910
Flags: HW
LayerCount: 2
Fore
SplineSet
384 817 m 0
 411 824 439 802 436 775 c 0
 435 768 240 141 236 135 c 0
 229 120 210 111 194 114 c 0
 173 118 156 136 158 157 c 0
 159 162 185 246 258 479 c 0
 312 652 357 795 359 798 c 0
 364 807 373 814 384 817 c 0
155 82 m 0
 177 87 199 74 204 51 c 0
 211 26 191 0 164 0 c 0
 138 0 118 26 124 51 c 0
 129 66 140 78 155 82 c 0
EndSplineSet
EndChar

StartChar: quotedbl
Encoding: 34 34 2
Width: 303
VWidth: 910
Flags: HW
LayerCount: 2
Fore
SplineSet
326 817 m 0
 348 823 371 810 377 789 c 0
 380 776 380 774 358 705 c 0
 347 670 337 640 335 637 c 0
 330 625 316 616 302 615 c 0
 284 614 269 623 261 639 c 0
 258 645 259 646 259 655 c 2
 259 666 l 1
 278 729 l 2
 289 764 298 794 300 797 c 0
 305 807 315 814 326 817 c 0
442 818 m 0
 451 820 463 819 472 814 c 0
 486 807 495 790 494 775 c 0
 493 769 454 643 451 637 c 0
 444 623 430 615 415 615 c 0
 399 615 385 623 378 638 c 0
 373 648 372 657 376 670 c 0
 384 699 415 794 417 798 c 0
 422 807 431 814 442 818 c 0
EndSplineSet
EndChar

StartChar: numbersign
Encoding: 35 35 3
Width: 607
VWidth: 910
Flags: HW
LayerCount: 2
Fore
SplineSet
430 613 m 0
 435 614 445 615 450 613 c 0
 475 608 488 581 479 558 c 0
 477 555 462 530 446 502 c 2
 415 452 l 1
 487 451 l 2
 550 451 560 451 561 452 c 0
 561 453 580 486 604 525 c 0
 629 567 649 598 652 601 c 0
 662 612 678 618 692 613 c 0
 716 608 729 583 721 560 c 0
 720 557 705 531 688 503 c 0
 671 475 657 452 657 451 c 2
 663 451 l 2
 670 451 679 450 684 446 c 0
 694 441 702 429 705 417 c 0
 708 402 699 382 684 374 c 0
 676 369 675 370 640 369 c 2
 606 369 l 1
 569 308 l 1
 532 247 l 1
 540 246 l 2
 549 245 551 244 558 241 c 0
 583 228 587 193 567 174 c 0
 562 170 556 167 551 165 c 0
 549 164 534 163 514 163 c 2
 482 163 l 1
 438 91 l 2
 414 52 393 18 391 15 c 0
 385 7 373 1 361 0 c 0
 330 -2 307 32 322 59 c 0
 323 61 338 86 354 113 c 2
 384 163 l 1
 312 163 l 2
 272 163 239 163 239 162 c 1
 238 162 220 129 195 90 c 0
 170 49 149 16 147 13 c 0
 142 8 133 3 126 1 c 0
 106 -4 83 9 77 29 c 0
 75 35 75 48 77 54 c 0
 78 57 91 77 110 110 c 0
 127 139 142 162 142 163 c 2
 137 163 l 2
 116 163 99 177 95 198 c 0
 92 213 101 233 116 240 c 0
 124 245 127 246 162 246 c 2
 193 246 l 1
 229 307 l 2
 250 341 267 368 267 368 c 2
 267 369 264 369 261 369 c 0
 246 369 232 377 225 389 c 0
 218 402 218 418 225 431 c 0
 230 438 239 446 248 450 c 0
 250 451 265 451 285 451 c 2
 318 452 l 1
 362 524 l 2
 394 578 407 598 411 602 c 0
 416 607 423 610 430 613 c 0
509 368 m 2
 509 369 480 369 437 369 c 2
 364 369 l 1
 328 308 l 2
 307 274 290 247 290 247 c 2
 290 246 323 246 362 246 c 2
 435 246 l 1
 471 307 l 2
 491 340 509 368 509 368 c 2
EndSplineSet
EndChar

StartChar: dollar
Encoding: 36 36 4
Width: 546
VWidth: 910
Flags: HW
LayerCount: 2
Fore
SplineSet
506 818 m 0
 508 818 512 819 516 819 c 0
 535 819 552 806 557 786 c 0
 559 778 558 774 552 752 c 2
 545 733 l 1
 554 733 l 2
 569 731 591 728 602 726 c 0
 648 715 673 692 680 654 c 0
 683 635 679 604 671 589 c 0
 663 574 644 564 628 567 c 0
 611 570 597 582 593 599 c 0
 591 606 592 614 595 623 c 0
 596 626 597 630 598 634 c 0
 598 639 598 641 596 642 c 0
 591 644 580 646 570 647 c 0
 559 649 521 652 520 651 c 0
 520 650 504 601 486 542 c 2
 452 436 l 1
 468 430 l 2
 513 413 541 392 557 367 c 0
 570 346 576 323 575 298 c 0
 574 279 569 257 558 227 c 0
 533 161 499 123 445 102 c 0
 421 94 393 89 353 86 c 2
 343 86 l 1
 340 73 l 2
 337 66 333 53 330 44 c 0
 324 25 321 18 315 12 c 0
 296 -6 266 -3 251 19 c 0
 243 32 243 43 251 68 c 0
 254 78 257 86 257 86 c 1
 257 86 250 86 243 87 c 0
 167 93 131 117 122 165 c 0
 119 184 123 213 131 230 c 0
 138 245 158 255 175 252 c 0
 191 249 204 236 208 220 c 0
 210 214 210 204 207 196 c 0
 206 193 205 188 204 185 c 0
 204 180 204 178 206 177 c 0
 211 175 222 173 233 172 c 0
 245 170 281 168 282 169 c 0
 283 170 349 381 349 381 c 2
 349 382 342 384 335 388 c 0
 278 409 248 432 231 467 c 0
 219 494 217 525 228 560 c 0
 238 596 254 628 269 652 c 0
 286 677 306 694 334 708 c 0
 364 723 395 730 441 733 c 0
 451 734 459 734 459 735 c 2
 459 735 464 749 469 764 c 0
 474 779 478 794 480 796 c 0
 485 806 495 814 506 818 c 0
432 647 m 0
 432 649 433 649 429 649 c 0
 419 648 397 645 386 640 c 0
 348 627 330 605 311 548 c 0
 299 512 302 499 325 484 c 0
 329 481 335 477 340 475 c 0
 349 470 373 460 373 461 c 1
 374 461 387 503 402 554 c 0
 418 604 431 646 432 647 c 0
441 351 m 0
 429 356 428 356 428 355 c 0
 423 343 370 170 370 170 c 2
 371 170 390 173 400 175 c 0
 440 184 463 207 480 256 c 0
 498 305 497 319 472 335 c 0
 463 341 454 346 441 351 c 0
EndSplineSet
EndChar

StartChar: percent
Encoding: 37 37 5
Width: 667
VWidth: 910
Flags: HW
LayerCount: 2
Fore
SplineSet
376 824 m 0
 378 825 394 825 410 825 c 0
 449 824 462 822 480 814 c 0
 506 801 522 777 522 747 c 0
 522 731 517 713 503 672 c 0
 472 579 436 542 370 530 c 0
 358 528 322 528 312 530 c 0
 261 538 234 566 232 614 c 0
 231 639 237 666 252 717 c 0
 264 755 273 774 290 790 c 0
 308 808 334 819 364 823 c 0
 369 824 374 824 376 824 c 0
437 740 m 0
 436 742 387 742 376 741 c 0
 371 740 365 739 361 738 c 0
 346 733 342 727 330 691 c 0
 323 666 318 646 316 633 c 0
 315 620 315 613 316 613 c 0
 321 611 335 611 345 611 c 0
 372 613 385 619 398 637 c 0
 409 653 420 682 433 725 c 0
 437 735 438 740 437 740 c 0
828 818 m 0
 834 820 847 819 853 816 c 0
 865 811 874 802 878 790 c 0
 880 784 880 771 878 765 c 0
 877 762 875 758 873 755 c 0
 870 751 733 617 490 379 c 0
 84 -17 107 5 95 1 c 0
 85 -1 74 0 65 5 c 0
 55 10 47 23 44 35 c 0
 42 46 46 59 54 68 c 0
 57 72 755 754 805 803 c 0
 815 812 820 815 828 818 c 0
560 289 m 0
 574 291 595 291 608 289 c 0
 652 284 678 263 688 228 c 0
 690 219 690 216 690 200 c 0
 690 185 690 179 688 170 c 0
 683 137 666 85 657 64 c 0
 639 28 612 6 572 -2 c 0
 556 -5 539 -5 510 -5 c 0
 474 -4 459 -3 443 5 c 0
 410 21 396 52 403 91 c 0
 407 108 421 157 432 181 c 0
 461 251 498 282 560 289 c 0
599 208 m 0
 592 209 576 209 568 208 c 0
 559 207 549 204 543 200 c 0
 531 194 520 176 509 151 c 0
 500 128 484 80 486 79 c 0
 487 77 530 77 544 78 c 0
 574 81 579 85 593 130 c 0
 603 163 608 186 608 201 c 0
 608 206 608 206 599 208 c 0
EndSplineSet
EndChar

StartChar: ampersand
Encoding: 38 38 6
Width: 546
VWidth: 910
Flags: HW
LayerCount: 2
Fore
SplineSet
489 824 m 0
 499 825 552 824 560 823 c 0
 615 817 648 793 661 753 c 0
 666 737 667 731 666 710 c 0
 666 693 666 689 664 676 c 0
 659 651 646 603 637 578 c 0
 630 556 614 531 599 512 c 0
 585 495 561 471 539 455 c 0
 510 434 481 417 419 385 c 0
 400 375 384 368 384 368 c 2
 384 367 394 337 399 320 c 0
 414 268 434 218 455 175 c 0
 463 159 463 157 465 159 c 0
 465 161 468 169 471 177 c 0
 474 186 478 195 480 198 c 0
 485 207 495 215 507 218 c 0
 532 223 558 200 556 174 c 0
 554 159 536 112 522 89 c 0
 519 85 518 81 519 81 c 1
 519 80 520 78 523 77 c 0
 538 67 546 50 543 35 c 0
 540 19 528 6 512 2 c 0
 497 -3 482 3 461 20 c 2
 457 25 l 1
 448 20 l 2
 424 8 394 1 356 -4 c 0
 343 -5 331 -5 292 -5 c 0
 243 -6 233 -5 214 -1 c 0
 168 6 137 26 121 60 c 0
 107 87 105 118 113 160 c 0
 117 183 129 230 138 253 c 0
 148 281 167 311 191 336 c 0
 211 357 246 384 279 404 c 0
 284 407 288 410 289 411 c 2
 289 411 288 418 286 425 c 0
 272 496 269 555 277 595 c 0
 279 606 287 633 295 656 c 0
 318 722 347 766 384 792 c 0
 394 799 415 809 428 813 c 0
 444 818 467 823 489 824 c 0
556 740 m 0
 546 741 504 742 489 741 c 0
 463 739 443 733 428 722 c 0
 411 708 394 683 380 650 c 0
 375 635 360 591 359 583 c 0
 354 558 355 517 363 465 c 2
 365 451 l 1
 388 462 l 2
 465 501 506 530 532 561 c 0
 551 584 559 603 574 653 c 0
 586 697 587 727 578 733 c 0
 574 736 565 738 556 740 c 0
320 293 m 0
 316 303 313 315 312 319 c 2
 310 326 l 1
 299 318 l 2
 281 305 269 296 255 283 c 0
 238 265 226 247 218 229 c 0
 211 212 197 162 193 141 c 0
 191 127 191 108 193 101 c 0
 198 83 221 77 289 77 c 0
 342 77 372 80 397 88 c 0
 402 90 405 92 405 92 c 2
 405 93 403 98 399 104 c 0
 372 154 341 226 320 293 c 0
EndSplineSet
EndChar

StartChar: parenleft
Encoding: 40 40 7
Width: 212
VWidth: 910
Flags: HW
LayerCount: 2
Fore
SplineSet
378 847 m 0
 393 850 402 850 412 845 c 0
 437 832 441 796 421 777 c 0
 414 771 403 766 395 766 c 0
 383 766 365 742 347 704 c 0
 316 637 279 527 214 314 c 0
 174 185 156 107 153 64 c 2
 153 52 l 1
 157 51 l 2
 175 45 189 23 185 5 c 0
 183 -7 174 -20 164 -25 c 0
 152 -31 136 -31 119 -25 c 0
 94 -18 79 2 72 33 c 0
 70 41 69 65 71 80 c 0
 76 129 97 214 136 341 c 0
 207 576 245 687 280 755 c 0
 308 811 341 841 378 847 c 0
EndSplineSet
EndChar

StartChar: parenright
Encoding: 41 41 8
Width: 212
VWidth: 910
Flags: HW
LayerCount: 2
Fore
SplineSet
314 848 m 0
 325 851 344 848 357 842 c 0
 378 832 391 814 397 786 c 0
 399 774 399 742 396 724 c 0
 387 662 367 585 325 452 c 0
 256 226 223 135 190 69 c 0
 175 38 162 19 147 3 c 0
 125 -18 101 -30 76 -30 c 0
 39 -30 21 15 46 41 c 0
 53 47 65 53 73 53 c 0
 84 53 102 76 120 113 c 0
 149 176 182 269 247 480 c 0
 293 627 313 709 316 755 c 2
 316 767 l 1
 313 768 l 2
 308 769 301 773 296 778 c 0
 291 783 287 789 285 796 c 0
 281 807 284 820 289 829 c 0
 294 837 304 844 314 848 c 0
EndSplineSet
EndChar

StartChar: asterisk
Encoding: 42 42 9
Width: 485
VWidth: 910
Flags: HW
LayerCount: 2
Fore
SplineSet
475 817 m 0
 498 823 521 810 526 786 c 0
 528 778 527 771 522 755 c 0
 519 747 518 740 518 740 c 1
 518 740 528 745 539 750 c 2
 558 759 l 1
 566 760 l 2
 584 761 598 752 606 737 c 0
 611 725 611 713 605 700 c 0
 600 689 597 686 562 669 c 0
 545 661 531 654 531 654 c 1
 531 654 537 649 544 644 c 0
 559 633 565 628 569 621 c 0
 573 615 573 607 573 598 c 0
 572 592 573 589 569 583 c 0
 566 578 565 575 561 572 c 0
 548 560 531 557 516 563 c 0
 513 565 503 572 492 579 c 0
 482 587 472 593 472 593 c 2
 471 593 466 577 461 560 c 0
 456 542 450 525 448 522 c 0
 443 512 432 505 421 502 c 0
 418 501 414 502 409 502 c 0
 391 503 375 517 371 536 c 0
 369 544 371 549 376 567 c 0
 379 574 380 581 380 581 c 1
 360 571 l 2
 337 560 333 559 322 561 c 0
 310 563 300 569 294 579 c 0
 289 586 288 594 288 604 c 0
 289 611 288 614 291 619 c 0
 297 632 301 634 336 651 c 2
 368 667 l 1
 353 676 l 2
 346 682 338 688 336 691 c 0
 326 700 322 715 325 729 c 0
 330 743 339 754 354 759 c 0
 359 760 372 760 377 759 c 0
 383 756 386 756 406 741 c 0
 416 734 425 728 425 727 c 1
 426 727 431 742 437 761 c 0
 444 783 448 795 451 799 c 0
 456 808 465 814 475 817 c 0
EndSplineSet
EndChar

StartChar: plus
Encoding: 43 43 10
Width: 607
VWidth: 910
Flags: HW
LayerCount: 2
Fore
SplineSet
472 613 m 0
 481 615 493 614 502 609 c 0
 516 602 525 585 524 570 c 0
 523 566 484 436 456 350 c 0
 456 348 460 349 546 349 c 0
 643 349 641 349 651 344 c 0
 680 329 680 285 651 270 c 0
 641 265 645 266 533 266 c 2
 430 266 l 1
 393 148 l 2
 373 83 355 28 353 24 c 0
 348 13 339 5 327 1 c 0
 317 -1 306 0 297 5 c 0
 283 12 274 30 275 45 c 0
 276 49 338 254 343 265 c 0
 343 266 325 266 253 266 c 0
 180 266 162 266 158 267 c 0
 139 272 127 288 127 308 c 0
 127 327 139 343 158 348 c 0
 162 349 182 349 266 349 c 2
 370 349 l 1
 407 470 l 2
 448 600 446 596 455 603 c 0
 460 607 466 611 472 613 c 0
EndSplineSet
EndChar

StartChar: comma
Encoding: 44 44 11
Width: 182
VWidth: 910
Flags: HW
LayerCount: 2
Fore
SplineSet
94 82 m 0
 103 84 115 82 124 77 c 0
 139 70 148 50 145 35 c 0
 142 19 124 -22 109 -48 c 0
 96 -70 70 -106 62 -112 c 0
 60 -114 56 -115 52 -117 c 0
 34 -126 9 -118 -1 -99 c 0
 -5 -92 -5 -85 -5 -76 c 0
 -4 -66 -2 -60 9 -46 c 0
 34 -16 51 15 63 50 c 0
 65 55 67 62 69 64 c 0
 74 72 84 79 94 82 c 0
EndSplineSet
EndChar

StartChar: hyphen
Encoding: 45 45 12
Width: 607
VWidth: 910
Flags: HW
LayerCount: 2
Fore
SplineSet
157 348 m 0
 163 349 635 350 642 348 c 0
 660 343 673 327 673 307 c 0
 673 288 660 272 642 267 c 0
 635 265 164 265 158 267 c 0
 139 272 127 288 127 308 c 0
 127 326 138 343 157 348 c 0
EndSplineSet
EndChar

StartChar: period
Encoding: 46 46 13
Width: 182
VWidth: 910
Flags: HW
LayerCount: 2
Fore
SplineSet
95 82 m 0
 117 87 139 74 144 51 c 0
 151 26 131 0 104 0 c 0
 78 0 58 26 64 51 c 0
 69 66 80 78 95 82 c 0
EndSplineSet
EndChar

StartChar: slash
Encoding: 47 47 14
Width: 425
VWidth: 910
Flags: HW
LayerCount: 2
Fore
SplineSet
586 818 m 0
 592 820 605 819 611 816 c 0
 635 807 645 780 634 759 c 0
 629 751 118 17 114 13 c 0
 107 6 95 0 85 0 c 0
 65 0 48 15 44 35 c 0
 42 43 43 52 47 59 c 0
 52 69 563 802 568 807 c 0
 573 812 580 815 586 818 c 0
EndSplineSet
EndChar

StartChar: zero
Encoding: 48 48 15
Width: 546
VWidth: 910
Flags: HW
LayerCount: 2
Fore
SplineSet
490 823 m 0
 505 825 538 825 552 823 c 0
 600 816 636 795 657 763 c 0
 667 748 672 735 676 715 c 0
 678 706 678 701 678 677 c 0
 678 647 678 638 672 605 c 0
 663 549 644 483 604 356 c 0
 560 220 527 145 484 88 c 0
 457 52 416 23 370 8 c 0
 307 -13 238 -10 190 15 c 0
 161 30 139 56 130 86 c 0
 125 102 124 113 124 142 c 0
 124 172 124 181 129 214 c 0
 139 270 156 328 196 455 c 0
 226 551 246 602 272 655 c 0
 287 686 305 715 320 735 c 0
 360 784 421 816 490 823 c 0
544 740 m 0
 537 741 509 742 502 741 c 0
 456 736 423 721 396 694 c 0
 369 666 337 608 309 532 c 0
 284 465 239 322 224 259 c 0
 209 195 203 146 208 117 c 0
 212 97 228 84 258 79 c 0
 272 77 300 77 316 80 c 0
 361 88 395 107 420 140 c 0
 446 175 472 227 497 296 c 0
 520 361 562 497 577 556 c 0
 593 621 599 672 594 703 c 0
 591 722 574 735 544 740 c 0
EndSplineSet
EndChar

StartChar: one
Encoding: 49 49 16
Width: 379
VWidth: 910
Flags: HW
LayerCount: 2
Fore
SplineSet
511 818 m 0
 520 820 532 819 541 814 c 0
 552 809 560 796 562 783 c 0
 563 778 563 775 561 769 c 0
 557 753 330 27 327 22 c 0
 319 6 298 -4 281 1 c 0
 261 6 248 24 249 44 c 0
 250 51 260 81 349 366 c 0
 403 539 447 680 447 681 c 2
 447 681 406 655 356 622 c 0
 259 559 261 560 248 560 c 0
 227 560 211 574 207 594 c 0
 204 607 209 622 218 630 c 0
 222 635 492 810 502 815 c 0
 504 816 509 817 511 818 c 0
EndSplineSet
EndChar

StartChar: two
Encoding: 50 50 17
Width: 546
VWidth: 910
Flags: HW
LayerCount: 2
Fore
SplineSet
463 824 m 0
 469 824 495 825 520 825 c 0
 567 824 578 823 599 818 c 0
 640 809 668 790 683 759 c 0
 692 739 695 721 694 696 c 0
 693 671 688 641 674 595 c 0
 658 539 633 497 593 451 c 0
 552 403 508 366 397 285 c 0
 338 242 312 223 285 200 c 0
 250 171 219 140 199 113 c 0
 192 104 179 85 179 84 c 0
 179 83 243 83 320 83 c 0
 475 83 467 82 477 77 c 0
 487 72 496 60 498 48 c 0
 501 32 492 12 477 5 c 0
 467 0 479 0 286 0 c 0
 142 0 110 0 106 1 c 0
 86 6 73 24 74 44 c 0
 75 63 96 109 119 144 c 0
 139 174 169 208 199 236 c 0
 236 270 270 295 349 352 c 0
 393 384 413 401 434 417 c 0
 517 482 564 536 586 596 c 0
 591 607 599 638 604 655 c 0
 609 676 611 688 611 703 c 0
 611 714 611 715 609 720 c 0
 606 728 600 732 587 736 c 0
 573 740 561 741 526 742 c 0
 456 743 421 738 396 725 c 0
 378 716 364 696 353 665 c 0
 348 650 346 648 341 642 c 0
 328 630 310 627 294 634 c 0
 286 639 280 644 276 651 c 0
 268 666 268 677 279 704 c 0
 288 728 300 748 313 764 c 0
 344 800 391 819 463 824 c 0
EndSplineSet
EndChar

StartChar: three
Encoding: 51 51 18
Width: 546
VWidth: 910
Flags: HW
LayerCount: 2
Fore
SplineSet
452 827 m 0
 460 828 502 827 512 826 c 0
 517 825 528 825 536 825 c 0
 588 825 625 816 651 800 c 0
 676 784 692 759 698 727 c 0
 700 715 700 686 698 672 c 0
 693 647 689 624 674 578 c 0
 661 536 653 517 640 492 c 0
 626 464 609 440 589 422 c 0
 582 416 569 406 563 402 c 0
 562 402 561 402 565 397 c 0
 573 382 580 364 583 345 c 0
 586 325 581 295 574 263 c 0
 566 233 547 173 538 150 c 0
 530 129 518 107 508 92 c 0
 486 58 462 36 429 20 c 0
 396 3 362 -3 311 -5 c 0
 299 -5 283 -6 277 -7 c 0
 261 -9 219 -9 204 -7 c 0
 162 -2 130 8 114 21 c 0
 93 38 83 68 89 96 c 0
 90 101 93 107 94 110 c 0
 102 126 121 136 137 133 c 0
 143 132 152 128 157 124 c 0
 166 117 173 103 172 90 c 2
 171 84 l 1
 177 82 l 2
 184 80 197 78 209 76 c 0
 221 74 256 74 270 76 c 0
 276 77 291 77 306 77 c 0
 332 78 343 79 359 83 c 0
 405 92 435 119 458 173 c 0
 467 194 488 258 494 285 c 0
 499 302 500 313 500 327 c 0
 501 346 497 354 486 359 c 0
 473 365 457 368 418 369 c 0
 394 370 392 369 387 371 c 0
 377 375 370 381 365 391 c 0
 359 404 359 416 364 429 c 0
 369 439 377 445 387 449 c 0
 392 451 394 450 419 451 c 0
 449 452 460 453 476 457 c 0
 527 467 557 498 582 565 c 0
 587 580 602 623 607 644 c 0
 616 678 619 704 614 718 c 0
 611 727 604 732 589 736 c 0
 577 740 564 741 538 742 c 0
 525 742 511 743 506 744 c 0
 475 748 437 744 401 735 c 0
 379 730 375 727 368 712 c 0
 363 701 357 695 347 690 c 0
 335 685 323 685 310 691 c 0
 295 698 287 716 288 731 c 0
 290 746 301 768 316 783 c 0
 334 800 353 809 388 817 c 0
 407 822 424 825 452 827 c 0
EndSplineSet
EndChar

StartChar: four
Encoding: 52 52 19
Width: 500
VWidth: 910
Flags: HW
LayerCount: 2
Fore
SplineSet
422 818 m 0
 440 823 461 813 469 796 c 0
 475 784 476 774 471 762 c 0
 470 759 433 705 391 640 c 2
 314 523 l 1
 357 522 l 1
 400 522 l 2
 400 523 405 538 411 556 c 0
 416 574 422 590 424 593 c 0
 425 596 429 600 431 603 c 0
 456 626 493 614 501 581 c 0
 503 573 501 569 494 546 c 0
 491 535 489 526 488 524 c 2
 488 522 l 1
 538 522 l 2
 588 522 588 522 593 520 c 0
 605 515 614 505 619 494 c 0
 621 488 621 474 619 468 c 0
 614 457 605 447 593 442 c 2
 589 441 l 1
 525 440 l 1
 461 440 l 1
 397 233 l 2
 362 119 332 25 330 22 c 0
 324 9 309 0 294 0 c 0
 270 0 250 21 252 45 c 0
 253 50 270 106 313 244 c 0
 347 350 374 439 374 439 c 2
 374 440 345 440 303 440 c 0
 247 440 231 440 228 441 c 0
 202 448 188 476 200 500 c 0
 204 507 397 801 402 806 c 0
 407 811 415 815 422 818 c 0
EndSplineSet
EndChar

StartChar: five
Encoding: 53 53 20
Width: 546
VWidth: 910
Flags: HW
LayerCount: 2
Fore
SplineSet
335 818 m 0
 339 819 377 819 516 819 c 0
 709 819 697 819 707 814 c 0
 717 809 725 797 728 785 c 0
 731 769 722 749 707 742 c 0
 697 737 707 736 534 736 c 2
 375 736 l 1
 356 674 l 2
 346 640 337 613 337 613 c 2
 338 613 344 613 352 614 c 0
 378 619 394 619 441 619 c 0
 487 620 496 619 518 614 c 0
 574 602 608 573 620 527 c 0
 625 510 625 497 625 476 c 0
 624 435 615 390 591 311 c 0
 563 222 550 186 528 144 c 0
 506 100 481 67 453 45 c 0
 418 17 371 0 315 -5 c 0
 298 -6 252 -6 228 -5 c 0
 158 -1 120 15 103 46 c 0
 92 68 90 93 97 124 c 0
 101 139 108 149 121 155 c 0
 126 158 129 157 136 158 c 0
 154 159 169 151 176 135 c 0
 181 126 181 117 178 106 c 0
 177 101 177 97 176 93 c 2
 176 86 l 1
 182 85 l 2
 200 80 239 76 285 77 c 0
 303 78 318 78 323 79 c 0
 381 87 411 107 441 157 c 0
 461 190 477 229 498 295 c 0
 533 401 542 443 542 481 c 0
 542 511 537 519 522 527 c 0
 507 533 490 536 454 537 c 0
 388 538 340 533 322 521 c 0
 312 515 303 502 298 487 c 0
 294 476 291 472 286 467 c 0
 278 460 270 457 260 456 c 0
 246 455 235 461 227 470 c 0
 220 477 215 490 216 500 c 0
 217 507 304 788 309 797 c 0
 314 806 324 814 335 818 c 0
EndSplineSet
EndChar

StartChar: six
Encoding: 54 54 21
Width: 546
VWidth: 910
Flags: HW
LayerCount: 2
Fore
SplineSet
466 823 m 0
 478 825 519 825 544 824 c 0
 617 820 655 804 673 769 c 0
 685 745 685 719 676 684 c 0
 670 663 655 650 635 650 c 0
 614 650 597 665 594 686 c 0
 593 692 593 694 596 705 c 0
 600 718 601 729 599 731 c 0
 596 733 583 736 570 738 c 0
 541 743 482 743 468 739 c 0
 444 733 423 720 402 700 c 0
 389 686 382 677 371 659 c 0
 363 645 341 604 342 603 c 2
 342 603 348 604 354 606 c 0
 385 616 420 621 463 620 c 0
 514 618 548 610 575 592 c 0
 598 577 614 554 620 527 c 0
 625 510 625 497 625 476 c 0
 623 429 612 383 576 268 c 0
 546 173 519 118 483 74 c 0
 463 50 443 35 416 21 c 0
 377 2 332 -6 276 -5 c 0
 224 -3 190 5 163 23 c 0
 140 38 124 60 118 87 c 0
 113 104 113 116 113 139 c 0
 115 184 124 226 156 327 c 0
 194 452 222 530 247 591 c 0
 269 644 297 699 315 724 c 0
 354 779 410 816 466 823 c 0
492 535 m 0
 483 536 442 537 432 536 c 0
 381 532 349 519 324 494 c 0
 293 460 268 411 239 317 c 0
 205 212 197 172 197 134 c 0
 197 104 201 95 217 87 c 0
 224 84 237 81 250 79 c 0
 262 77 307 77 320 79 c 0
 379 86 410 106 441 157 c 0
 461 190 477 229 498 295 c 0
 533 401 542 443 542 481 c 0
 542 511 537 519 522 527 c 0
 514 530 505 533 492 535 c 0
EndSplineSet
EndChar

StartChar: seven
Encoding: 55 55 22
Width: 485
VWidth: 910
Flags: HW
LayerCount: 2
Fore
SplineSet
304 817 m 0
 309 819 334 819 488 819 c 2
 666 819 l 1
 671 816 l 1
 696 806 706 778 692 756 c 0
 690 753 583 586 455 384 c 0
 287 120 220 16 216 12 c 0
 202 -3 179 -4 162 8 c 0
 157 13 150 21 147 28 c 0
 145 35 145 50 148 56 c 0
 149 59 247 212 366 399 c 2
 581 736 l 1
 443 736 l 1
 306 737 l 1
 300 739 l 2
 280 746 270 766 274 786 c 0
 278 801 289 813 304 817 c 0
EndSplineSet
EndChar

StartChar: eight
Encoding: 56 56 23
Width: 546
VWidth: 910
Flags: HW
LayerCount: 2
Fore
SplineSet
471 824 m 0
 489 825 563 824 578 823 c 0
 618 818 645 806 664 787 c 0
 685 766 695 739 695 705 c 0
 695 690 695 678 690 659 c 0
 685 635 670 582 657 547 c 0
 635 488 608 448 571 421 c 0
 567 417 563 415 563 414 c 2
 567 409 l 2
 574 398 579 384 583 368 c 0
 585 360 585 355 585 339 c 0
 585 317 585 311 580 286 c 0
 575 264 561 215 549 180 c 0
 521 96 484 47 428 20 c 0
 403 7 382 1 349 -3 c 0
 329 -6 268 -7 243 -5 c 0
 191 -2 159 10 136 33 c 0
 121 48 111 66 106 90 c 0
 104 98 104 102 104 120 c 0
 104 138 104 142 106 156 c 0
 111 181 123 225 139 274 c 0
 164 349 194 395 238 425 c 0
 243 429 248 430 248 431 c 2
 248 431 246 434 244 438 c 0
 228 463 224 499 232 542 c 0
 236 563 244 596 259 639 c 0
 278 698 299 736 328 765 c 0
 364 801 407 819 471 824 c 0
570 740 m 0
 563 741 493 742 482 741 c 0
 450 739 430 734 413 725 c 0
 379 708 359 678 338 612 c 0
 317 550 311 525 311 502 c 0
 311 481 314 476 329 471 c 0
 342 466 354 464 393 463 c 0
 455 462 482 466 507 478 c 0
 532 491 550 510 566 543 c 0
 573 558 580 575 589 605 c 0
 607 662 612 681 612 703 c 0
 612 716 611 720 608 725 c 0
 603 732 591 737 570 740 c 0
460 379 m 0
 452 380 439 380 412 380 c 0
 391 381 373 381 370 380 c 0
 323 377 295 368 272 346 c 0
 250 326 233 296 218 249 c 0
 210 226 199 187 194 172 c 0
 183 129 183 101 194 91 c 0
 200 86 212 82 230 79 c 0
 245 77 320 77 336 79 c 0
 351 81 367 83 377 87 c 0
 414 101 440 130 461 183 c 0
 470 204 489 263 496 289 c 0
 506 329 505 357 495 367 c 0
 490 372 477 376 460 379 c 0
EndSplineSet
EndChar

StartChar: nine
Encoding: 57 57 24
Width: 546
VWidth: 910
Flags: HW
LayerCount: 2
Fore
SplineSet
492 824 m 0
 503 825 536 825 547 824 c 0
 570 822 592 818 608 812 c 0
 617 809 635 800 643 795 c 0
 662 781 677 760 684 737 c 0
 695 700 691 655 675 591 c 0
 664 544 617 394 589 317 c 0
 553 213 514 131 483 90 c 0
 458 56 427 30 392 14 c 0
 377 7 370 4 355 0 c 0
 339 -5 326 -5 299 -5 c 0
 196 -5 150 10 129 50 c 0
 117 74 116 103 127 137 c 0
 130 147 132 151 137 157 c 0
 146 166 155 170 169 169 c 0
 175 168 179 169 184 166 c 0
 198 160 206 148 208 134 c 0
 209 127 209 123 205 108 c 0
 202 101 201 90 203 88 c 0
 206 86 219 83 232 81 c 0
 257 77 313 76 328 78 c 0
 353 83 379 99 402 123 c 0
 414 135 422 146 433 165 c 0
 442 181 461 216 460 217 c 2
 460 217 456 216 452 214 c 0
 436 209 413 204 389 201 c 0
 373 199 321 199 306 201 c 0
 278 205 260 209 241 219 c 0
 227 225 219 232 209 241 c 0
 196 255 187 272 182 292 c 0
 171 335 176 386 200 471 c 0
 208 498 229 562 237 584 c 0
 264 664 293 717 329 756 c 0
 353 782 388 803 426 814 c 0
 446 819 469 823 492 824 c 0
542 741 m 0
 531 742 507 742 497 741 c 0
 441 737 408 724 381 692 c 0
 353 657 331 611 302 521 c 0
 272 426 264 391 260 352 c 0
 258 334 260 314 265 305 c 0
 270 295 287 288 314 284 c 0
 328 282 372 282 387 284 c 0
 429 290 456 302 478 326 c 0
 503 351 523 389 543 445 c 0
 560 492 590 584 597 619 c 0
 609 668 610 707 601 721 c 0
 594 731 572 738 542 741 c 0
EndSplineSet
EndChar

StartChar: colon
Encoding: 58 58 25
Width: 182
VWidth: 910
Flags: HW
LayerCount: 2
Fore
SplineSet
260 613 m 0
 282 618 304 606 309 583 c 0
 316 558 296 532 269 532 c 0
 243 532 223 558 229 583 c 0
 234 598 245 609 260 613 c 0
95 82 m 0
 117 87 139 74 144 51 c 0
 151 26 131 0 104 0 c 0
 78 0 58 26 64 51 c 0
 69 66 80 78 95 82 c 0
EndSplineSet
EndChar

StartChar: semicolon
Encoding: 59 59 26
Width: 182
VWidth: 910
Flags: HW
LayerCount: 2
Fore
SplineSet
260 613 m 0
 282 618 304 606 309 583 c 0
 316 558 296 532 269 532 c 0
 243 532 223 558 229 583 c 0
 234 598 245 609 260 613 c 0
94 82 m 0
 103 84 115 82 124 77 c 0
 139 70 148 50 145 35 c 0
 142 19 124 -22 109 -48 c 0
 96 -70 70 -106 62 -112 c 0
 60 -114 56 -115 52 -117 c 0
 34 -126 9 -118 -1 -99 c 0
 -5 -92 -5 -85 -5 -76 c 0
 -4 -66 -2 -60 9 -46 c 0
 34 -16 51 15 63 50 c 0
 65 55 67 62 69 64 c 0
 74 72 84 79 94 82 c 0
EndSplineSet
EndChar

StartChar: less
Encoding: 60 60 27
Width: 607
VWidth: 910
Flags: HW
LayerCount: 2
Fore
SplineSet
705 613 m 0
 713 615 727 614 735 609 c 0
 745 604 752 592 755 580 c 0
 757 567 753 553 744 543 c 0
 740 539 735 537 727 533 c 0
 666 503 257 305 254 303 c 2
 249 300 l 1
 411 188 l 2
 501 125 576 73 578 70 c 0
 593 54 593 28 578 12 c 0
 563 -2 541 -4 524 8 c 0
 505 21 142 275 139 278 c 0
 122 294 122 322 139 338 c 0
 142 340 150 344 157 348 c 0
 203 371 701 612 705 613 c 0
EndSplineSet
EndChar

StartChar: equal
Encoding: 61 61 28
Width: 607
VWidth: 910
Flags: HW
LayerCount: 2
Fore
SplineSet
189 451 m 0
 195 453 667 453 674 451 c 0
 686 447 696 438 701 427 c 0
 704 422 705 421 705 411 c 0
 705 400 704 398 701 393 c 0
 696 382 686 374 674 370 c 0
 667 368 196 368 189 370 c 0
 177 374 167 381 162 393 c 0
 159 399 159 401 159 411 c 0
 159 420 159 421 162 427 c 0
 164 431 167 436 169 439 c 0
 174 444 183 449 189 451 c 0
125 245 m 0
 132 248 603 248 610 246 c 0
 622 242 631 235 636 223 c 0
 640 216 641 216 641 206 c 0
 641 195 640 195 636 188 c 0
 632 179 626 173 619 168 c 0
 609 163 624 164 368 164 c 0
 109 164 126 164 116 169 c 0
 101 176 92 196 95 212 c 0
 98 227 110 241 125 245 c 0
EndSplineSet
EndChar

StartChar: greater
Encoding: 62 62 29
Width: 607
VWidth: 910
Flags: HW
LayerCount: 2
Fore
SplineSet
240 613 m 0
 249 615 262 615 270 610 c 0
 276 605 656 341 660 337 c 0
 677 321 677 293 660 277 c 0
 657 275 650 271 644 268 c 0
 593 243 97 2 94 1 c 0
 85 -1 73 0 65 5 c 0
 55 10 47 23 44 35 c 0
 42 48 47 61 56 71 c 0
 60 75 64 77 75 82 c 0
 441 260 542 310 546 311 c 2
 550 314 l 1
 388 427 l 2
 300 489 224 541 221 544 c 0
 214 551 209 562 209 573 c 0
 209 591 222 608 240 613 c 0
EndSplineSet
EndChar

StartChar: question
Encoding: 63 63 30
Width: 485
VWidth: 910
Flags: HW
LayerCount: 2
Fore
SplineSet
447 824 m 0
 465 825 527 824 542 823 c 0
 582 818 610 806 630 786 c 0
 645 771 655 753 660 728 c 0
 662 720 662 716 662 698 c 0
 662 675 660 666 654 639 c 0
 649 619 635 564 622 527 c 0
 591 436 552 387 487 354 c 0
 458 340 426 332 399 332 c 0
 391 332 390 332 390 330 c 0
 380 296 329 138 327 135 c 0
 320 120 301 111 285 114 c 0
 264 118 247 136 249 157 c 0
 250 164 321 392 325 400 c 0
 334 416 355 424 373 419 c 0
 399 411 432 417 464 436 c 0
 499 459 520 490 542 553 c 0
 548 572 565 625 570 640 c 0
 582 684 583 714 573 726 c 0
 568 732 552 738 533 740 c 0
 518 742 457 742 442 740 c 0
 402 735 378 726 357 703 c 0
 334 679 318 649 300 593 c 0
 291 563 288 558 282 552 c 0
 262 533 230 538 217 563 c 0
 213 569 213 572 212 579 c 0
 212 588 212 591 223 623 c 0
 251 709 283 756 330 788 c 0
 361 809 398 820 447 824 c 0
246 82 m 0
 268 87 290 74 295 51 c 0
 302 26 282 0 255 0 c 0
 229 0 209 26 215 51 c 0
 220 66 231 78 246 82 c 0
EndSplineSet
EndChar

StartChar: at
Encoding: 64 64 31
Width: 728
VWidth: 910
Flags: HW
LayerCount: 2
Fore
SplineSet
537 751 m 0
 558 752 612 752 632 751 c 0
 695 747 737 737 771 714 c 0
 783 706 798 691 806 679 c 0
 831 641 839 591 830 526 c 0
 825 489 814 444 793 378 c 0
 784 349 780 338 772 320 c 0
 753 283 727 252 694 230 c 0
 679 220 658 212 641 208 c 0
 633 206 610 206 603 208 c 0
 596 211 584 215 579 219 c 0
 577 221 574 223 574 222 c 2
 571 215 l 2
 570 211 566 202 562 195 c 0
 538 147 507 120 462 109 c 0
 442 104 410 103 392 105 c 0
 365 108 343 118 327 133 c 0
 316 145 310 157 305 173 c 0
 303 182 303 184 303 203 c 0
 303 243 312 282 339 372 c 0
 364 455 380 496 399 534 c 0
 414 564 425 581 441 597 c 0
 466 622 501 638 540 642 c 0
 552 643 578 643 592 641 c 0
 626 636 649 621 661 597 c 0
 666 588 667 582 669 572 c 0
 672 553 669 531 661 500 c 0
 660 493 647 450 633 404 c 0
 618 358 606 320 606 320 c 1
 606 320 608 319 610 319 c 0
 615 317 624 313 629 309 c 0
 631 306 633 302 635 299 c 2
 639 294 l 1
 644 297 l 2
 665 309 687 335 699 361 c 0
 704 372 707 379 715 406 c 0
 741 491 750 532 750 573 c 0
 750 594 749 601 745 615 c 0
 741 625 737 634 730 640 c 0
 708 661 666 669 586 669 c 0
 476 669 418 651 370 604 c 0
 356 589 347 578 336 561 c 0
 305 515 285 466 248 345 c 0
 220 254 211 215 211 173 c 0
 211 153 212 145 216 133 c 0
 226 100 253 78 290 71 c 0
 296 70 304 70 317 70 c 0
 335 70 343 71 361 76 c 0
 372 78 378 79 385 76 c 0
 401 72 413 59 416 43 c 0
 420 23 407 2 387 -4 c 0
 366 -10 334 -14 309 -14 c 0
 276 -13 252 -7 226 6 c 0
 191 22 163 49 147 84 c 0
 122 132 121 195 145 287 c 0
 157 333 189 436 206 482 c 0
 233 554 262 607 299 649 c 0
 355 714 431 746 537 751 c 0
587 574 m 0
 579 575 548 576 541 575 c 0
 512 570 489 557 474 533 c 0
 449 496 430 444 396 333 c 0
 376 266 368 224 369 198 c 0
 370 183 371 180 381 176 c 0
 389 172 398 170 411 170 c 0
 451 170 472 178 489 201 c 0
 499 214 506 228 514 252 c 0
 519 267 593 502 597 518 c 0
 602 539 605 556 603 564 c 0
 601 569 596 571 587 574 c 0
EndSplineSet
EndChar

StartChar: A
Encoding: 65 65 32
Width: 576
VWidth: 910
Flags: HW
LayerCount: 2
Fore
SplineSet
492 817 m 0
 499 820 563 820 570 817 c 0
 582 814 592 806 597 796 c 0
 602 784 605 818 573 411 c 0
 557 209 543 39 543 35 c 0
 542 31 541 27 540 24 c 0
 534 10 517 0 502 0 c 0
 483 0 466 14 461 34 c 0
 460 39 461 42 471 167 c 0
 476 238 481 296 481 296 c 2
 481 297 437 297 383 297 c 2
 287 297 l 1
 210 157 l 2
 143 34 134 18 129 13 c 0
 113 -3 87 -4 70 13 c 0
 60 23 55 41 60 55 c 0
 61 57 154 226 265 431 c 0
 443 756 468 802 473 806 c 0
 478 811 485 815 492 817 c 0
500 545 m 0
 507 636 513 711 513 711 c 2
 512 711 332 380 332 380 c 2
 332 379 487 380 487 380 c 1
 487 380 494 454 500 545 c 0
EndSplineSet
EndChar

StartChar: B
Encoding: 66 66 33
Width: 546
VWidth: 910
Flags: HW
LayerCount: 2
Fore
SplineSet
335 818 m 0
 343 820 431 819 470 816 c 0
 570 809 633 786 660 747 c 0
 675 726 683 702 684 671 c 0
 685 641 679 613 666 572 c 0
 644 506 617 459 582 430 c 0
 573 423 559 413 551 408 c 0
 548 406 545 405 545 404 c 2
 550 400 l 2
 564 385 571 367 576 344 c 0
 578 336 578 332 578 314 c 0
 578 290 577 279 571 253 c 0
 562 217 552 188 538 160 c 0
 512 106 474 67 428 44 c 0
 383 22 321 8 243 3 c 0
 199 0 114 -1 106 1 c 0
 86 6 73 24 74 44 c 0
 75 51 85 86 190 421 c 0
 257 638 307 793 309 797 c 0
 314 806 324 814 335 818 c 0
450 735 m 0
 441 736 419 735 404 736 c 2
 376 736 l 1
 331 595 l 2
 306 518 287 453 287 452 c 0
 287 451 294 451 329 451 c 0
 400 451 433 454 464 462 c 0
 521 476 553 506 578 570 c 0
 584 586 591 610 595 624 c 0
 599 639 601 659 601 670 c 0
 599 694 593 703 576 711 c 0
 550 724 509 732 450 735 c 0
390 368 m 0
 379 369 346 369 316 369 c 0
 264 369 260 369 260 367 c 0
 259 364 173 88 172 86 c 2
 171 83 l 1
 186 84 l 2
 272 87 317 92 360 106 c 0
 395 118 415 131 437 156 c 0
 457 180 472 210 484 253 c 0
 496 291 498 320 493 335 c 0
 486 354 452 365 390 368 c 0
EndSplineSet
EndChar

StartChar: C
Encoding: 67 67 34
Width: 546
VWidth: 910
Flags: HW
LayerCount: 2
Fore
SplineSet
494 824 m 0
 504 825 577 824 592 823 c 0
 660 817 697 800 714 765 c 0
 722 750 726 734 725 713 c 0
 724 698 722 684 717 668 c 0
 712 655 710 648 705 643 c 0
 685 622 651 628 637 654 c 0
 634 659 635 661 634 668 c 0
 634 676 633 678 636 689 c 0
 641 703 643 716 642 722 c 0
 641 727 641 727 636 729 c 0
 627 734 609 738 587 740 c 0
 569 742 514 742 502 741 c 0
 453 736 412 716 386 683 c 0
 364 656 342 615 320 563 c 0
 301 515 274 433 244 331 c 0
 213 226 202 157 208 117 c 0
 211 97 228 85 258 79 c 0
 274 76 338 77 369 81 c 0
 394 84 416 89 429 96 c 0
 445 105 459 125 468 151 c 0
 476 172 480 179 493 185 c 0
 500 189 501 189 512 189 c 0
 522 189 522 189 529 185 c 0
 544 178 553 163 553 147 c 0
 553 138 545 118 534 96 c 0
 496 20 431 -7 289 -5 c 0
 257 -4 249 -4 229 1 c 0
 192 10 162 29 145 56 c 0
 135 71 130 85 126 105 c 0
 124 114 124 118 124 142 c 0
 124 172 124 181 129 214 c 0
 139 270 156 328 196 455 c 0
 226 550 245 600 271 654 c 0
 287 686 305 714 320 735 c 0
 347 768 382 793 426 809 c 0
 444 815 472 822 494 824 c 0
EndSplineSet
EndChar

StartChar: D
Encoding: 68 68 35
Width: 530
VWidth: 910
Flags: HW
LayerCount: 2
Fore
SplineSet
335 818 m 0
 339 819 348 819 380 819 c 0
 443 818 479 815 514 806 c 0
 577 791 620 758 644 710 c 0
 657 684 663 658 664 624 c 0
 666 564 651 505 603 354 c 0
 574 262 543 198 506 149 c 0
 461 90 404 48 336 25 c 0
 282 7 224 0 137 0 c 0
 117 0 109 0 106 1 c 0
 86 6 73 24 74 44 c 0
 75 51 85 86 190 421 c 0
 257 638 307 793 309 797 c 0
 314 806 323 814 335 818 c 0
429 735 m 0
 421 735 406 735 395 736 c 2
 376 736 l 1
 274 411 l 2
 218 233 172 85 172 85 c 2
 172 82 228 86 257 91 c 0
 343 106 404 145 451 215 c 0
 483 262 504 309 539 423 c 0
 562 499 572 538 577 573 c 0
 593 686 556 727 429 735 c 0
EndSplineSet
EndChar

StartChar: E
Encoding: 69 69 36
Width: 530
VWidth: 910
Flags: HW
LayerCount: 2
Fore
SplineSet
335 818 m 0
 341 820 690 820 697 818 c 0
 709 814 720 807 725 795 c 0
 728 789 728 787 728 778 c 0
 728 768 728 767 725 761 c 0
 720 752 714 746 707 742 c 0
 696 737 707 736 533 736 c 2
 375 736 l 1
 331 595 l 2
 306 518 287 453 287 452 c 0
 287 451 306 451 417 451 c 0
 523 451 547 452 552 451 c 0
 564 447 574 438 579 427 c 0
 582 422 583 421 583 411 c 0
 583 400 582 398 579 393 c 0
 574 382 564 374 552 370 c 0
 547 369 521 369 403 369 c 2
 260 369 l 1
 259 364 l 2
 258 361 239 297 215 221 c 2
 171 84 l 1
 319 83 l 2
 423 83 466 82 469 81 c 0
 487 75 498 60 498 42 c 0
 498 22 485 6 467 1 c 0
 460 -1 112 -1 106 1 c 0
 86 6 73 24 74 44 c 0
 75 51 85 86 190 421 c 0
 257 638 307 793 309 797 c 0
 314 806 324 814 335 818 c 0
EndSplineSet
EndChar

StartChar: F
Encoding: 70 70 37
Width: 530
VWidth: 910
Flags: HW
LayerCount: 2
Fore
SplineSet
335 818 m 0
 341 820 690 820 697 818 c 0
 709 814 720 807 725 795 c 0
 728 789 728 787 728 778 c 0
 728 768 728 767 725 761 c 0
 720 752 714 746 707 742 c 0
 696 737 707 736 533 736 c 2
 375 736 l 1
 331 595 l 2
 306 518 287 453 287 452 c 0
 287 451 306 451 417 451 c 0
 523 451 547 452 552 451 c 0
 564 447 574 438 579 427 c 0
 582 422 583 421 583 411 c 0
 583 400 582 398 579 393 c 0
 574 382 564 374 552 370 c 0
 547 369 521 369 403 369 c 2
 260 369 l 2
 260 366 153 27 151 22 c 0
 143 6 123 -4 106 1 c 0
 86 6 73 24 74 44 c 0
 75 51 85 86 190 421 c 0
 257 638 307 793 309 797 c 0
 314 806 324 814 335 818 c 0
EndSplineSet
EndChar

StartChar: G
Encoding: 71 71 38
Width: 546
VWidth: 910
Flags: HW
LayerCount: 2
Fore
SplineSet
494 824 m 0
 504 825 577 824 592 823 c 0
 660 817 697 800 714 765 c 0
 722 750 726 734 725 713 c 0
 724 698 722 684 717 668 c 0
 712 655 710 648 705 643 c 0
 685 622 651 628 637 654 c 0
 634 659 635 661 634 668 c 0
 634 676 633 678 636 689 c 0
 641 703 643 716 642 722 c 0
 641 727 641 727 636 729 c 0
 627 734 609 738 587 740 c 0
 569 742 514 742 502 741 c 0
 453 736 412 716 386 683 c 0
 364 656 342 615 320 563 c 0
 301 515 274 433 244 331 c 0
 213 226 202 157 208 117 c 0
 211 97 228 85 258 79 c 0
 274 76 338 77 369 81 c 0
 394 84 416 89 429 96 c 0
 445 105 459 125 468 151 c 0
 472 159 536 367 536 368 c 0
 536 369 514 369 487 369 c 0
 449 369 436 369 433 370 c 0
 414 375 401 391 401 410 c 0
 401 430 414 446 433 451 c 0
 436 452 453 451 518 451 c 0
 605 451 603 451 613 446 c 0
 628 439 637 419 634 404 c 0
 633 398 550 136 545 121 c 0
 543 115 538 103 534 96 c 0
 496 19 432 -7 289 -5 c 0
 257 -4 249 -4 229 1 c 0
 192 10 162 29 145 56 c 0
 135 71 130 85 126 105 c 0
 124 114 124 118 124 142 c 0
 124 172 124 181 129 214 c 0
 139 270 156 328 196 455 c 0
 226 550 245 600 271 654 c 0
 287 686 305 714 320 735 c 0
 347 768 382 793 426 809 c 0
 444 815 472 822 494 824 c 0
EndSplineSet
EndChar

StartChar: H
Encoding: 72 72 39
Width: 546
VWidth: 910
Flags: HW
LayerCount: 2
Fore
SplineSet
335 818 m 0
 344 820 356 819 365 814 c 0
 380 807 389 787 386 772 c 0
 385 769 366 707 343 633 c 0
 319 559 300 497 300 496 c 2
 299 493 l 1
 427 493 l 1
 555 493 l 1
 602 643 l 2
 627 726 649 794 651 796 c 0
 657 809 672 819 687 819 c 0
 707 819 724 804 728 783 c 0
 729 778 729 775 727 769 c 0
 723 753 496 27 493 22 c 0
 488 12 479 5 467 2 c 0
 446 -4 423 9 417 30 c 0
 414 44 410 32 472 230 c 0
 503 329 529 410 529 411 c 2
 401 411 l 1
 274 411 l 1
 214 219 l 2
 179 107 153 27 151 23 c 0
 143 6 123 -4 106 1 c 0
 86 6 73 24 74 44 c 0
 75 51 85 86 190 421 c 0
 257 638 307 793 309 797 c 0
 314 806 324 814 335 818 c 0
EndSplineSet
EndChar

StartChar: I
Encoding: 73 73 40
Width: 334
VWidth: 910
Flags: HW
LayerCount: 2
Fore
SplineSet
400 817 m 0
 427 824 454 802 451 775 c 0
 450 768 221 30 217 23 c 0
 206 2 180 -6 160 5 c 0
 146 12 137 30 138 45 c 0
 139 51 370 792 374 798 c 0
 379 807 389 814 400 817 c 0
EndSplineSet
EndChar

StartChar: J
Encoding: 74 74 41
Width: 455
VWidth: 910
Flags: HW
LayerCount: 2
Fore
SplineSet
586 818 m 0
 595 820 607 819 616 814 c 0
 627 809 635 796 637 783 c 0
 638 778 638 775 636 769 c 0
 633 759 457 192 450 172 c 0
 423 94 388 47 340 22 c 0
 325 16 317 12 302 8 c 0
 278 2 264 1 227 1 c 0
 192 1 179 1 162 5 c 0
 117 15 90 41 81 79 c 0
 74 108 75 140 87 188 c 0
 93 210 103 239 106 244 c 0
 112 257 127 267 142 267 c 0
 157 267 171 258 178 245 c 0
 182 239 184 227 184 222 c 0
 183 219 181 209 177 197 c 0
 164 156 160 135 160 115 c 0
 159 101 161 96 166 92 c 0
 169 89 180 86 190 85 c 0
 203 83 251 83 265 85 c 0
 291 90 307 95 322 110 c 0
 340 127 356 156 371 199 c 0
 374 207 418 345 467 503 c 0
 520 670 558 793 560 797 c 0
 565 806 575 814 586 818 c 0
EndSplineSet
EndChar

StartChar: K
Encoding: 75 75 42
Width: 530
VWidth: 910
Flags: HW
LayerCount: 2
Fore
SplineSet
335 818 m 0
 344 820 356 819 365 814 c 0
 380 807 389 787 386 772 c 0
 386 769 369 714 348 648 c 0
 328 582 310 528 310 528 c 1
 310 528 391 592 487 670 c 0
 583 748 665 813 667 814 c 0
 676 819 687 820 697 818 c 0
 709 814 720 807 725 795 c 0
 728 789 728 787 728 777 c 0
 728 767 728 767 724 760 c 0
 722 755 718 751 716 748 c 0
 713 746 650 695 574 634 c 0
 498 574 436 522 435 522 c 0
 434 521 441 468 466 285 c 0
 483 155 498 45 498 41 c 0
 498 30 493 19 485 12 c 0
 469 -3 444 -3 428 12 c 0
 423 17 419 25 417 31 c 0
 416 33 403 130 388 247 c 0
 372 364 359 459 359 460 c 1
 358 460 272 391 267 387 c 0
 267 386 240 305 210 207 c 0
 179 109 153 25 151 22 c 0
 143 6 123 -4 106 1 c 0
 86 6 73 24 74 44 c 0
 75 51 85 86 190 421 c 0
 257 638 307 793 309 797 c 0
 314 806 324 814 335 818 c 0
EndSplineSet
EndChar

StartChar: L
Encoding: 76 76 43
Width: 516
VWidth: 910
Flags: HW
LayerCount: 2
Fore
SplineSet
335 818 m 0
 344 820 356 819 365 814 c 0
 380 807 389 787 386 772 c 0
 386 769 337 613 279 425 c 2
 171 84 l 1
 319 83 l 2
 424 83 467 82 470 81 c 0
 488 75 499 59 499 42 c 0
 499 23 486 6 468 1 c 0
 461 -1 112 -1 106 1 c 0
 86 6 73 24 74 44 c 0
 75 51 85 86 190 421 c 0
 257 638 307 793 309 797 c 0
 314 806 324 814 335 818 c 0
EndSplineSet
EndChar

StartChar: M
Encoding: 77 77 44
Width: 789
VWidth: 910
Flags: HW
LayerCount: 2
Fore
SplineSet
335 818 m 0
 344 820 356 819 365 814 c 0
 376 809 384 796 386 784 c 0
 387 780 397 637 411 466 c 0
 425 294 436 153 436 151 c 0
 436 148 458 180 666 475 c 0
 793 654 898 803 900 806 c 0
 907 813 919 819 930 819 c 0
 950 819 967 804 971 783 c 0
 972 778 972 775 970 769 c 0
 966 753 739 27 736 22 c 0
 731 12 722 5 710 2 c 0
 689 -4 666 9 660 30 c 0
 657 44 651 26 735 294 c 0
 777 428 812 537 811 537 c 1
 811 536 727 417 624 270 c 0
 520 124 435 4 433 2 c 0
 420 -12 400 -14 384 -5 c 0
 373 0 365 12 363 25 c 0
 362 29 353 147 341 291 c 0
 330 435 321 553 320 555 c 0
 320 559 311 527 238 294 c 0
 189 137 153 27 151 23 c 0
 143 6 123 -4 106 1 c 0
 86 6 73 24 74 44 c 0
 75 51 85 86 190 421 c 0
 257 638 307 793 309 797 c 0
 314 806 324 814 335 818 c 0
EndSplineSet
EndChar

StartChar: N
Encoding: 78 78 45
Width: 546
VWidth: 910
Flags: HW
LayerCount: 2
Fore
SplineSet
335 818 m 0
 344 820 356 819 365 814 c 0
 375 809 383 797 385 786 c 0
 386 782 406 655 429 503 c 0
 454 342 471 227 471 228 c 0
 472 229 512 356 560 511 c 0
 612 675 649 793 651 797 c 0
 657 810 672 819 687 819 c 0
 707 819 724 804 728 783 c 0
 729 778 729 775 727 769 c 0
 723 753 496 27 493 22 c 0
 487 9 472 0 457 0 c 0
 439 0 423 13 418 30 c 0
 417 34 397 161 373 314 c 0
 350 467 331 593 331 593 c 2
 331 594 291 466 243 311 c 0
 190 144 153 27 151 23 c 0
 143 6 123 -4 106 1 c 0
 86 6 73 24 74 44 c 0
 75 51 85 86 190 421 c 0
 257 638 307 793 309 797 c 0
 314 806 324 814 335 818 c 0
EndSplineSet
EndChar

StartChar: O
Encoding: 79 79 46
Width: 698
VWidth: 910
Flags: HW
LayerCount: 2
Fore
SplineSet
559 824 m 0
 573 825 619 825 634 824 c 0
 673 821 709 816 734 806 c 0
 747 801 766 791 776 784 c 0
 787 777 801 762 808 752 c 0
 823 730 833 699 836 665 c 0
 838 650 838 618 836 602 c 0
 831 569 824 533 812 489 c 0
 797 437 762 327 747 286 c 0
 685 119 610 38 492 8 c 0
 457 -1 424 -4 374 -5 c 0
 293 -6 240 2 199 23 c 0
 184 31 172 39 161 51 c 0
 149 62 142 72 135 87 c 0
 121 114 116 146 117 187 c 0
 118 209 118 221 123 246 c 0
 131 292 141 332 169 421 c 0
 202 524 218 570 243 618 c 0
 263 659 283 687 309 718 c 0
 367 785 443 819 559 824 c 0
630 741 m 0
 615 742 576 742 563 741 c 0
 518 739 492 735 463 725 c 0
 446 720 426 710 413 701 c 0
 372 674 336 625 306 557 c 0
 288 516 275 480 248 394 c 0
 217 296 207 256 201 210 c 0
 199 194 199 163 201 152 c 0
 206 117 219 101 253 90 c 0
 279 81 321 76 373 77 c 0
 426 79 457 83 492 95 c 0
 508 100 529 110 542 118 c 0
 591 151 631 213 667 309 c 0
 684 354 720 466 734 519 c 0
 749 571 754 607 754 641 c 0
 754 667 752 682 745 697 c 0
 732 722 696 737 630 741 c 0
EndSplineSet
EndChar

StartChar: P
Encoding: 80 80 47
Width: 530
VWidth: 910
Flags: HW
LayerCount: 2
Fore
SplineSet
335 818 m 0
 339 819 350 819 390 819 c 0
 440 818 461 818 489 815 c 0
 545 810 583 801 615 786 c 0
 632 778 642 771 652 761 c 0
 675 738 686 708 688 670 c 0
 689 639 682 602 669 567 c 0
 648 509 616 464 576 433 c 0
 530 398 462 378 364 372 c 0
 342 370 298 369 275 369 c 2
 260 369 l 2
 260 366 153 27 151 22 c 0
 143 6 123 -4 106 1 c 0
 86 6 73 24 74 44 c 0
 75 51 85 86 190 421 c 0
 257 638 307 793 309 797 c 0
 314 806 323 814 335 818 c 0
427 735 m 0
 412 736 395 736 388 736 c 2
 375 736 l 1
 331 594 l 2
 306 516 287 452 287 451 c 1
 288 451 341 453 360 455 c 0
 416 459 457 467 492 481 c 0
 518 492 539 507 558 532 c 0
 600 588 618 679 593 703 c 0
 586 709 567 717 547 722 c 0
 518 730 483 733 427 735 c 0
EndSplineSet
EndChar

StartChar: Q
Encoding: 81 81 48
Width: 698
VWidth: 910
Flags: HW
LayerCount: 2
Fore
SplineSet
559 824 m 0
 573 825 619 825 634 824 c 0
 673 821 709 816 734 806 c 0
 747 801 766 791 776 784 c 0
 787 777 801 762 808 752 c 0
 823 730 833 699 836 665 c 0
 838 641 837 607 832 578 c 0
 824 530 812 485 781 387 c 0
 752 293 736 249 711 201 c 0
 689 157 669 128 640 95 c 0
 638 92 636 90 636 89 c 2
 636 89 639 80 643 71 c 0
 651 49 652 43 650 35 c 0
 645 7 615 -8 590 5 c 0
 581 10 574 19 569 31 c 2
 567 37 l 1
 555 31 l 2
 516 12 472 1 416 -4 c 0
 384 -7 320 -6 291 -2 c 0
 231 4 190 22 161 51 c 0
 149 62 142 72 135 87 c 0
 121 114 116 146 117 187 c 0
 118 209 118 221 123 246 c 0
 131 292 141 332 169 421 c 0
 202 524 218 570 243 618 c 0
 263 659 283 687 309 718 c 0
 367 785 443 819 559 824 c 0
630 741 m 0
 615 742 576 742 563 741 c 0
 518 739 492 735 463 725 c 0
 446 720 426 710 413 701 c 0
 372 674 336 625 306 557 c 0
 288 516 275 480 248 394 c 0
 217 296 207 256 201 210 c 0
 199 194 199 163 201 152 c 0
 206 117 219 101 253 90 c 0
 279 81 321 76 373 77 c 0
 426 79 457 83 492 95 c 0
 506 100 531 111 536 115 c 0
 538 117 538 119 524 156 c 0
 516 178 510 197 509 201 c 0
 506 216 516 237 531 244 c 0
 547 252 565 250 578 237 c 0
 584 231 587 227 594 205 c 0
 598 195 602 186 602 184 c 2
 603 181 l 1
 610 191 l 2
 643 242 666 295 703 414 c 0
 743 541 754 590 754 641 c 0
 754 667 752 682 745 697 c 0
 732 722 696 737 630 741 c 0
EndSplineSet
EndChar

StartChar: R
Encoding: 82 82 49
Width: 546
VWidth: 910
Flags: HW
LayerCount: 2
Fore
SplineSet
335 818 m 0
 343 820 434 819 477 816 c 0
 549 811 598 801 635 782 c 0
 661 768 680 749 691 724 c 0
 707 689 708 643 693 590 c 0
 681 549 660 508 635 477 c 0
 626 465 608 448 598 440 c 0
 573 419 543 404 506 394 c 0
 473 384 448 379 402 374 c 0
 397 374 397 373 398 372 c 0
 403 358 517 56 518 53 c 0
 521 42 518 29 513 20 c 0
 506 8 492 0 478 0 c 0
 463 0 447 9 441 23 c 0
 439 27 409 105 374 199 c 2
 310 370 l 1
 286 369 l 1
 260 369 l 2
 260 368 237 292 208 198 c 0
 178 104 153 25 151 22 c 0
 143 6 123 -4 106 1 c 0
 86 6 73 24 74 44 c 0
 75 51 85 86 190 421 c 0
 257 638 307 793 309 797 c 0
 314 806 324 814 335 818 c 0
431 735 m 0
 416 736 397 736 389 736 c 2
 375 736 l 1
 331 594 l 2
 306 516 287 452 287 451 c 1
 288 451 343 453 360 454 c 0
 432 459 485 470 521 488 c 0
 545 499 565 518 582 544 c 0
 616 595 629 664 614 693 c 0
 610 700 605 705 595 710 c 0
 563 725 514 732 431 735 c 0
EndSplineSet
EndChar

StartChar: S
Encoding: 83 83 50
Width: 546
VWidth: 910
Flags: HW
LayerCount: 2
Fore
SplineSet
477 824 m 0
 479 825 503 825 528 824 c 0
 563 824 578 824 588 823 c 0
 645 817 679 798 694 766 c 0
 707 740 707 708 695 665 c 0
 691 653 689 648 684 642 c 0
 671 630 652 627 636 634 c 0
 628 639 622 644 618 651 c 0
 612 664 611 671 616 690 c 0
 620 705 623 719 622 725 c 0
 621 729 620 730 617 732 c 0
 601 739 568 743 509 742 c 0
 471 741 461 740 443 736 c 0
 395 727 365 698 341 640 c 0
 336 625 324 590 321 578 c 0
 313 548 321 525 347 498 c 0
 364 482 383 469 419 447 c 0
 430 441 443 434 448 430 c 0
 509 391 544 348 557 300 c 0
 561 284 562 273 562 257 c 0
 561 235 557 220 542 177 c 0
 523 121 502 84 475 56 c 0
 458 40 443 28 422 18 c 0
 399 7 374 0 344 -4 c 0
 323 -6 237 -6 215 -4 c 0
 147 4 112 27 100 72 c 0
 98 81 98 83 98 98 c 0
 98 112 98 118 100 126 c 0
 103 142 108 161 112 167 c 0
 122 188 147 195 167 185 c 0
 172 182 181 174 184 169 c 0
 190 158 191 147 186 128 c 0
 182 114 179 100 180 94 c 0
 181 89 183 88 194 85 c 0
 205 81 218 79 237 78 c 0
 258 77 304 77 323 78 c 0
 372 81 402 95 426 126 c 0
 441 145 451 167 465 208 c 0
 477 242 478 248 478 263 c 0
 478 276 477 282 472 292 c 0
 462 314 437 338 402 360 c 0
 397 363 386 371 376 376 c 0
 325 406 294 431 272 458 c 0
 254 481 243 504 238 530 c 0
 236 538 236 542 236 557 c 0
 236 582 237 592 252 636 c 0
 265 675 279 704 294 728 c 0
 316 761 340 784 373 799 c 0
 403 814 429 821 477 824 c 0
EndSplineSet
EndChar

StartChar: T
Encoding: 84 84 51
Width: 516
VWidth: 910
Flags: HW
LayerCount: 2
Fore
SplineSet
319 818 m 0
 325 820 676 820 683 818 c 0
 695 814 705 807 710 795 c 0
 713 789 714 787 714 778 c 0
 714 768 713 767 710 761 c 0
 705 752 700 746 693 742 c 0
 682 737 684 736 604 736 c 2
 532 736 l 1
 529 728 l 2
 528 723 478 564 418 374 c 0
 359 184 309 26 308 23 c 0
 297 2 271 -6 251 5 c 0
 237 12 228 30 229 45 c 0
 230 48 275 192 337 392 c 0
 396 580 444 734 444 735 c 0
 444 736 423 736 384 736 c 0
 320 736 320 736 310 741 c 0
 297 748 289 763 289 778 c 0
 289 796 301 813 319 818 c 0
EndSplineSet
EndChar

StartChar: U
Encoding: 85 85 52
Width: 546
VWidth: 910
Flags: HW
LayerCount: 2
Fore
SplineSet
335 818 m 0
 344 820 356 819 365 814 c 0
 376 809 384 796 386 783 c 0
 387 778 387 775 385 769 c 0
 384 764 340 622 287 452 c 0
 234 282 190 138 188 133 c 0
 183 112 182 97 186 92 c 0
 190 87 204 82 224 79 c 0
 230 78 247 78 271 77 c 0
 342 76 374 81 400 94 c 0
 423 105 438 126 451 161 c 0
 453 166 498 312 552 482 c 0
 608 663 649 793 651 797 c 0
 657 810 672 819 687 819 c 0
 707 819 724 804 728 783 c 0
 729 778 729 775 727 769 c 0
 724 756 533 145 528 131 c 0
 518 103 501 75 486 57 c 0
 457 24 415 4 360 -2 c 0
 340 -5 319 -5 284 -5 c 0
 233 -5 209 -3 184 3 c 0
 128 18 98 53 100 108 c 0
 101 124 103 134 108 156 c 0
 113 178 305 790 309 797 c 0
 314 806 324 814 335 818 c 0
EndSplineSet
EndChar

StartChar: V
Encoding: 86 86 53
Width: 576
VWidth: 910
Flags: HW
LayerCount: 2
Fore
SplineSet
319 818 m 0
 325 820 338 819 344 816 c 0
 352 813 359 807 364 801 c 0
 369 795 370 788 371 780 c 0
 371 775 360 631 345 441 c 0
 330 258 319 107 319 107 c 1
 319 107 404 264 509 455 c 0
 715 832 701 809 713 814 c 0
 722 819 733 820 743 818 c 0
 755 814 765 807 770 795 c 0
 773 789 774 787 774 777 c 2
 774 767 l 1
 768 758 l 2
 766 753 673 584 564 383 c 0
 346 -17 362 11 350 5 c 0
 341 0 337 0 301 0 c 0
 264 0 261 0 252 5 c 0
 242 10 233 23 231 35 c 0
 230 40 234 97 259 411 c 0
 275 616 289 784 289 787 c 0
 293 802 304 813 319 818 c 0
EndSplineSet
EndChar

StartChar: W
Encoding: 87 87 54
Width: 819
VWidth: 910
Flags: HW
LayerCount: 2
Fore
SplineSet
319 818 m 0
 325 820 338 819 344 816 c 0
 359 811 369 796 371 780 c 0
 371 775 361 691 329 450 c 0
 305 272 285 125 285 125 c 2
 286 125 359 271 448 449 c 0
 595 742 609 772 614 776 c 0
 622 785 638 790 649 788 c 0
 655 787 665 783 670 779 c 0
 678 773 684 759 684 748 c 0
 684 744 667 603 646 433 c 0
 624 263 607 125 607 124 c 2
 607 124 682 276 773 461 c 0
 864 646 940 799 942 802 c 0
 948 811 960 818 973 819 c 0
 980 819 987 819 995 814 c 0
 1010 806 1020 786 1016 769 c 0
 1015 764 650 22 645 16 c 0
 641 11 634 6 627 3 c 0
 622 1 621 1 587 0 c 0
 563 0 550 0 546 1 c 0
 530 5 517 18 514 35 c 0
 513 40 515 51 542 273 c 0
 558 400 571 505 572 508 c 0
 572 510 532 431 448 265 c 0
 346 61 323 18 320 13 c 0
 315 8 307 4 300 1 c 0
 293 -1 229 -1 222 1 c 0
 210 5 200 14 195 25 c 0
 190 37 185 8 239 412 c 0
 265 612 288 779 289 784 c 0
 292 801 303 813 319 818 c 0
EndSplineSet
EndChar

StartChar: X
Encoding: 88 88 55
Width: 546
VWidth: 910
Flags: HW
LayerCount: 2
Fore
SplineSet
335 818 m 0
 344 820 356 819 365 814 c 0
 374 809 382 798 385 789 c 0
 385 786 396 726 407 654 c 0
 419 582 429 523 430 522 c 0
 430 519 438 530 542 662 c 0
 605 740 657 806 660 808 c 0
 666 814 678 819 687 819 c 0
 707 819 724 804 728 784 c 0
 730 776 729 765 724 758 c 0
 722 755 659 676 584 581 c 2
 448 408 l 1
 478 225 l 2
 508 44 508 41 507 35 c 0
 503 14 486 0 466 0 c 0
 450 0 433 12 427 27 c 0
 427 29 415 96 402 175 c 0
 389 254 379 319 379 319 c 2
 379 320 363 301 345 278 c 0
 156 38 136 12 131 8 c 0
 108 -9 74 2 66 29 c 0
 62 40 65 55 71 64 c 0
 72 66 138 148 217 248 c 0
 321 379 360 430 360 432 c 0
 360 433 346 510 331 603 c 0
 300 793 302 783 308 795 c 0
 313 806 323 814 335 818 c 0
EndSplineSet
EndChar

StartChar: Y
Encoding: 89 89 56
Width: 546
VWidth: 910
Flags: HW
LayerCount: 2
Fore
SplineSet
335 818 m 0
 344 820 356 819 365 814 c 0
 371 810 378 802 382 796 c 0
 385 790 388 775 411 669 c 0
 425 602 436 547 437 545 c 0
 437 544 455 565 547 674 c 0
 607 746 657 806 660 808 c 0
 666 814 678 819 687 819 c 0
 707 819 724 804 728 784 c 0
 730 776 729 765 724 758 c 0
 722 755 660 681 586 592 c 2
 451 431 l 1
 388 229 l 2
 353 118 324 25 322 22 c 0
 317 12 308 5 296 2 c 0
 275 -4 252 9 246 30 c 0
 243 44 240 30 309 252 c 2
 371 453 l 1
 338 613 l 2
 305 768 304 773 304 781 c 0
 305 787 305 790 308 795 c 0
 313 806 323 814 335 818 c 0
EndSplineSet
EndChar

StartChar: Z
Encoding: 90 90 57
Width: 516
VWidth: 910
Flags: HW
LayerCount: 2
Fore
SplineSet
319 818 m 0
 325 820 676 820 683 818 c 0
 695 814 705 807 710 795 c 0
 713 789 714 787 714 778 c 0
 714 768 713 767 710 761 c 0
 707 756 651 683 446 419 c 2
 185 84 l 1
 318 83 l 2
 412 83 451 82 454 81 c 0
 472 75 483 60 483 42 c 0
 483 22 470 6 452 1 c 0
 447 0 415 0 271 0 c 0
 115 0 95 0 90 2 c 0
 63 8 50 41 65 64 c 0
 67 66 184 217 327 401 c 2
 587 736 l 1
 454 736 l 2
 360 736 321 737 318 738 c 0
 300 744 289 760 289 778 c 0
 289 796 301 813 319 818 c 0
EndSplineSet
EndChar

StartChar: bracketleft
Encoding: 91 91 58
Width: 243
VWidth: 910
Flags: HW
LayerCount: 2
Fore
SplineSet
314 848 m 0
 320 849 427 850 434 848 c 0
 452 843 465 827 465 808 c 0
 465 788 452 772 434 767 c 0
 430 766 420 766 392 766 c 2
 355 766 l 1
 243 411 l 2
 182 215 132 54 132 54 c 2
 132 53 143 53 156 53 c 0
 182 53 187 52 195 47 c 0
 210 40 219 20 216 5 c 0
 213 -11 201 -24 185 -28 c 0
 178 -31 72 -31 66 -29 c 0
 46 -24 32 -4 34 15 c 0
 35 21 283 817 287 826 c 0
 292 835 303 844 314 848 c 0
EndSplineSet
EndChar

StartChar: backslash
Encoding: 92 92 59
Width: 425
VWidth: 910
Flags: HW
LayerCount: 2
Fore
SplineSet
304 817 m 0
 326 823 350 809 355 787 c 0
 356 782 408 50 408 41 c 0
 408 19 389 0 367 0 c 0
 348 0 330 15 326 33 c 0
 325 36 314 204 299 408 c 0
 276 735 273 779 274 785 c 0
 277 800 289 813 304 817 c 0
EndSplineSet
EndChar

StartChar: bracketright
Encoding: 93 93 60
Width: 243
VWidth: 910
Flags: HW
LayerCount: 2
Fore
SplineSet
314 848 m 0
 320 849 428 850 434 848 c 0
 453 843 466 826 465 806 c 0
 464 799 453 760 340 398 c 0
 263 150 213 -5 211 -8 c 0
 206 -18 196 -25 185 -28 c 0
 178 -31 72 -31 66 -29 c 0
 51 -24 39 -12 35 3 c 0
 30 25 44 46 66 52 c 0
 69 53 78 53 107 53 c 2
 145 53 l 1
 201 233 l 2
 232 332 282 493 312 590 c 2
 368 766 l 1
 341 766 l 2
 326 766 314 767 312 768 c 0
 303 771 294 779 289 786 c 0
 285 791 283 800 283 808 c 0
 283 815 285 824 289 829 c 0
 294 837 304 844 314 848 c 0
EndSplineSet
EndChar

StartChar: asciicircum
Encoding: 94 94 61
Width: 303
VWidth: 910
Flags: HW
LayerCount: 2
Fore
SplineSet
384 817 m 0
 394 820 404 820 413 815 c 0
 418 812 486 760 490 755 c 0
 495 750 499 742 500 735 c 0
 504 718 492 698 476 691 c 0
 471 688 470 688 460 688 c 0
 449 688 447 688 442 691 c 0
 438 692 427 701 413 711 c 2
 390 729 l 1
 383 725 l 2
 357 710 313 689 309 688 c 0
 306 687 302 687 297 687 c 0
 290 688 287 688 282 691 c 0
 274 695 267 702 262 709 c 0
 256 723 256 733 262 747 c 0
 268 759 270 760 328 790 c 0
 356 805 381 817 384 817 c 0
EndSplineSet
EndChar

StartChar: underscore
Encoding: 95 95 62
Width: 546
VWidth: 910
Flags: HW
LayerCount: 2
Fore
SplineSet
18 -1 m 0
 22 0 71 0 259 0 c 0
 469 0 497 0 502 -2 c 0
 523 -7 536 -27 532 -47 c 0
 529 -64 518 -77 502 -81 c 0
 497 -83 469 -83 260 -83 c 0
 1 -83 19 -82 8 -77 c 0
 1 -73 -4 -67 -9 -58 c 0
 -12 -52 -12 -51 -12 -41 c 0
 -12 -32 -12 -31 -9 -25 c 0
 -7 -21 -4 -16 -2 -13 c 0
 3 -8 12 -3 18 -1 c 0
EndSplineSet
EndChar

StartChar: a
Encoding: 97 97 63
Width: 516
VWidth: 910
Flags: HW
LayerCount: 2
Fore
SplineSet
417 619 m 0
 419 620 435 620 453 619 c 0
 488 619 502 618 520 613 c 0
 533 610 540 608 551 602 c 2
 560 597 l 1
 564 602 l 2
 574 613 589 617 603 613 c 0
 615 609 626 602 631 590 c 0
 634 584 634 582 634 573 c 2
 634 564 l 1
 551 297 l 2
 505 150 466 27 464 24 c 0
 452 -1 420 -7 399 11 c 2
 395 15 l 1
 388 12 l 2
 372 5 351 -1 327 -4 c 0
 308 -6 247 -6 231 -4 c 0
 190 2 163 15 143 35 c 0
 122 56 113 81 111 119 c 0
 111 139 112 155 117 180 c 0
 123 217 131 249 156 328 c 0
 179 400 191 435 209 471 c 0
 233 520 258 554 289 577 c 0
 318 599 360 613 403 618 c 0
 408 619 415 619 417 619 c 0
477 536 m 0
 465 537 429 537 421 536 c 0
 367 532 337 517 312 482 c 0
 287 449 267 402 242 326 c 0
 208 222 199 181 195 142 c 0
 193 120 195 101 200 95 c 0
 205 89 217 83 235 80 c 0
 256 76 309 76 331 81 c 0
 377 90 402 115 424 174 c 0
 429 189 511 449 516 466 c 0
 521 484 522 492 522 506 c 0
 522 516 522 518 520 522 c 0
 518 527 514 528 509 531 c 0
 501 534 492 535 477 536 c 0
EndSplineSet
EndChar

StartChar: b
Encoding: 98 98 64
Width: 516
VWidth: 910
Flags: HW
LayerCount: 2
Fore
SplineSet
335 818 m 0
 344 820 356 819 365 814 c 0
 380 807 389 787 386 772 c 0
 385 769 377 740 366 707 c 0
 356 674 348 647 348 647 c 2
 348 646 353 648 358 650 c 0
 371 654 390 657 406 660 c 0
 425 662 472 662 488 660 c 0
 502 657 519 654 530 649 c 0
 567 635 594 608 603 573 c 0
 608 555 607 551 607 526 c 0
 607 500 606 490 601 461 c 0
 595 426 585 388 563 319 c 0
 535 227 520 188 498 144 c 0
 481 110 466 88 446 65 c 0
 427 43 396 22 365 10 c 0
 345 3 318 -3 292 -5 c 0
 277 -7 231 -6 216 -4 c 0
 191 0 166 7 153 16 c 2
 150 18 l 1
 145 13 l 2
 142 10 138 6 135 5 c 0
 107 -10 72 11 74 44 c 0
 75 51 85 86 190 421 c 0
 257 638 307 793 309 797 c 0
 314 806 324 814 335 818 c 0
482 577 m 0
 474 578 439 579 429 578 c 0
 387 575 362 566 343 548 c 0
 320 527 301 493 283 440 c 0
 274 412 200 172 195 156 c 0
 190 135 187 117 188 106 c 0
 190 92 192 88 205 84 c 0
 213 81 221 79 236 78 c 0
 292 74 334 82 364 103 c 0
 394 123 423 169 450 242 c 0
 466 286 500 393 511 438 c 0
 521 476 524 501 524 526 c 0
 524 543 524 551 521 557 c 0
 516 566 502 573 482 577 c 0
EndSplineSet
EndChar

StartChar: c
Encoding: 99 99 65
Width: 516
VWidth: 910
Flags: HW
LayerCount: 2
Fore
SplineSet
417 619 m 0
 426 620 497 619 510 618 c 0
 541 614 564 608 579 598 c 0
 613 578 625 537 610 490 c 0
 607 479 604 473 598 467 c 0
 590 460 583 457 573 456 c 0
 551 455 534 467 529 488 c 0
 527 495 528 500 530 510 c 0
 532 515 532 521 532 524 c 2
 533 529 l 1
 527 531 l 2
 511 536 479 538 440 537 c 0
 413 536 402 536 386 532 c 0
 340 521 314 496 284 436 c 0
 266 400 254 365 226 274 c 0
 206 209 198 176 195 142 c 0
 193 120 195 101 200 95 c 0
 205 89 219 83 238 79 c 0
 246 78 252 78 283 78 c 0
 321 78 336 79 356 83 c 0
 369 85 378 87 385 92 c 0
 395 97 405 110 411 127 c 0
 413 132 414 136 416 139 c 0
 419 144 426 151 433 155 c 0
 438 158 441 157 448 158 c 0
 466 159 481 151 488 135 c 0
 494 122 494 112 485 91 c 0
 470 54 445 27 413 14 c 0
 394 6 369 0 340 -4 c 0
 317 -6 247 -6 231 -4 c 0
 190 2 163 15 143 35 c 0
 122 56 113 81 111 119 c 0
 111 139 112 155 117 180 c 0
 123 217 131 249 156 328 c 0
 179 400 191 435 209 471 c 0
 232 517 258 551 286 574 c 0
 306 589 332 603 360 610 c 0
 378 615 390 617 417 619 c 0
EndSplineSet
EndChar

StartChar: d
Encoding: 100 100 66
Width: 516
VWidth: 910
Flags: HW
LayerCount: 2
Fore
SplineSet
647 818 m 0
 656 820 668 819 677 814 c 0
 688 809 696 796 698 783 c 0
 699 778 699 775 697 769 c 0
 693 753 466 27 463 22 c 0
 457 9 442 0 427 0 c 0
 417 0 406 5 399 11 c 2
 395 15 l 1
 385 11 l 2
 367 4 351 0 327 -4 c 0
 310 -6 250 -6 236 -4 c 0
 181 3 147 23 129 58 c 0
 124 69 122 75 118 90 c 0
 116 101 117 103 117 126 c 0
 117 151 118 162 124 193 c 0
 131 229 150 293 175 372 c 0
 203 455 229 509 264 549 c 0
 299 590 350 614 415 619 c 0
 433 621 481 620 497 618 c 0
 518 615 534 611 549 603 c 0
 554 601 557 599 558 599 c 1
 558 600 572 643 588 696 c 0
 605 751 620 795 622 798 c 0
 627 806 636 814 647 818 c 0
477 536 m 0
 462 537 430 537 418 536 c 0
 398 534 375 528 361 522 c 0
 338 510 322 493 304 463 c 0
 289 437 273 402 258 356 c 0
 246 323 221 243 214 216 c 0
 199 163 195 121 201 100 c 0
 204 90 217 83 238 79 c 0
 256 76 306 77 329 80 c 0
 354 85 374 95 389 111 c 0
 404 126 413 144 424 174 c 0
 429 189 511 449 516 466 c 0
 521 484 522 492 522 506 c 0
 522 516 522 518 520 522 c 0
 518 527 514 528 509 531 c 0
 501 534 492 535 477 536 c 0
EndSplineSet
EndChar

StartChar: e
Encoding: 101 101 67
Width: 500
VWidth: 910
Flags: HW
LayerCount: 2
Fore
SplineSet
406 619 m 0
 411 619 421 620 430 620 c 0
 479 620 519 607 544 582 c 0
 565 561 574 536 576 498 c 0
 577 468 573 435 561 389 c 0
 553 354 532 283 527 275 c 0
 522 266 514 260 504 255 c 0
 500 254 492 253 360 253 c 2
 219 253 l 1
 214 237 l 2
 199 185 193 152 193 124 c 0
 193 107 194 100 197 95 c 0
 202 88 213 83 230 79 c 0
 242 77 282 76 306 78 c 0
 344 80 366 86 377 96 c 0
 382 101 388 111 392 119 c 0
 398 136 404 144 414 149 c 0
 435 161 460 153 471 131 c 0
 474 125 474 124 475 116 c 0
 475 108 475 105 472 97 c 0
 463 69 444 41 422 25 c 0
 397 8 363 -2 310 -5 c 0
 285 -7 238 -6 224 -4 c 0
 173 3 139 24 122 59 c 0
 114 75 110 91 109 116 c 0
 108 153 116 196 136 265 c 0
 145 292 161 347 170 372 c 0
 198 456 225 511 260 551 c 0
 275 568 297 584 321 596 c 0
 346 608 374 616 406 619 c 0
449 536 m 0
 424 539 396 536 373 528 c 0
 360 524 354 520 343 513 c 0
 311 493 280 439 251 354 c 0
 248 345 246 337 246 337 c 2
 246 336 290 336 353 336 c 2
 461 336 l 1
 466 355 l 2
 483 412 489 446 492 479 c 0
 494 496 493 513 490 518 c 0
 485 527 470 533 449 536 c 0
EndSplineSet
EndChar

StartChar: f
Encoding: 102 102 68
Width: 379
VWidth: 910
Flags: HW
LayerCount: 2
Fore
SplineSet
431 824 m 0
 442 825 489 824 498 823 c 0
 547 815 576 789 582 746 c 0
 585 730 583 710 578 685 c 0
 576 672 567 637 563 628 c 0
 558 616 548 608 537 603 c 0
 531 601 517 601 511 603 c 0
 500 608 490 616 485 628 c 0
 483 632 483 635 483 643 c 0
 483 651 483 652 487 665 c 0
 497 695 502 720 501 732 c 0
 500 737 500 737 497 738 c 0
 489 741 480 741 458 741 c 0
 433 742 422 740 411 737 c 0
 386 729 369 709 354 665 c 0
 351 659 339 617 325 573 c 2
 299 494 l 1
 353 493 l 2
 402 493 407 493 411 492 c 0
 426 486 436 474 439 459 c 0
 442 443 433 423 418 416 c 0
 409 411 409 411 339 411 c 2
 274 411 l 1
 214 219 l 2
 179 107 153 27 151 23 c 0
 146 12 137 5 125 2 c 0
 104 -4 81 9 75 30 c 0
 72 44 68 30 137 253 c 0
 172 363 217 505 236 567 c 0
 256 630 274 688 277 695 c 0
 292 735 311 767 333 786 c 0
 358 809 388 820 431 824 c 0
EndSplineSet
EndChar

StartChar: g
Encoding: 103 103 69
Width: 516
VWidth: 910
Flags: HW
LayerCount: 2
Fore
SplineSet
417 619 m 0
 426 620 497 619 510 618 c 0
 531 615 553 611 563 606 c 2
 566 604 l 1
 570 607 l 2
 578 613 592 616 602 613 c 0
 609 611 619 607 624 602 c 0
 626 599 629 594 631 590 c 0
 634 584 634 582 634 573 c 2
 634 564 l 1
 532 238 l 2
 476 59 429 -92 426 -97 c 0
 405 -151 374 -183 326 -198 c 0
 293 -208 261 -211 194 -210 c 0
 149 -209 136 -209 116 -204 c 0
 96 -200 82 -195 68 -186 c 0
 39 -167 27 -134 33 -93 c 0
 35 -78 40 -56 45 -48 c 0
 49 -40 55 -34 64 -29 c 0
 70 -26 71 -26 80 -25 c 0
 87 -25 90 -25 94 -27 c 0
 109 -32 119 -45 122 -61 c 0
 123 -68 122 -69 117 -90 c 0
 115 -96 115 -104 114 -109 c 2
 114 -117 l 1
 118 -119 l 2
 124 -122 136 -125 149 -126 c 0
 164 -128 247 -128 262 -126 c 0
 284 -124 306 -118 317 -112 c 0
 331 -104 342 -89 350 -66 c 0
 355 -55 370 0 370 0 c 2
 370 1 367 0 363 -1 c 0
 343 -4 325 -5 284 -5 c 0
 239 -6 232 -4 209 1 c 0
 168 10 139 30 124 61 c 0
 114 81 109 114 112 148 c 0
 114 173 120 207 129 241 c 0
 138 272 161 348 174 383 c 0
 199 457 224 508 256 544 c 0
 283 577 317 599 360 610 c 0
 378 615 390 617 417 619 c 0
487 536 m 0
 469 537 429 537 416 536 c 0
 376 532 345 520 324 497 c 0
 309 482 298 463 284 436 c 0
 266 400 254 365 226 274 c 0
 206 209 198 176 195 142 c 0
 193 120 195 101 200 95 c 0
 205 89 219 83 238 79 c 0
 246 78 252 78 283 78 c 0
 321 78 336 79 356 83 c 0
 369 85 378 87 385 92 c 0
 394 97 404 108 409 122 c 0
 413 132 531 516 532 521 c 0
 533 525 533 528 533 528 c 2
 531 532 511 534 487 536 c 0
EndSplineSet
EndChar

StartChar: h
Encoding: 104 104 70
Width: 516
VWidth: 910
Flags: HW
LayerCount: 2
Fore
SplineSet
335 818 m 0
 344 820 356 819 365 814 c 0
 380 807 389 787 386 772 c 0
 386 769 374 733 361 690 c 0
 339 622 337 613 339 613 c 0
 358 618 432 622 461 619 c 0
 520 614 560 593 579 556 c 0
 584 545 586 539 590 524 c 0
 592 513 592 512 592 490 c 0
 592 470 592 463 590 451 c 0
 586 423 579 393 569 357 c 0
 557 318 466 27 463 22 c 0
 458 12 449 5 437 2 c 0
 416 -4 393 9 387 30 c 0
 384 44 381 34 436 208 c 0
 486 368 491 385 497 410 c 0
 509 457 512 494 507 514 c 0
 504 524 492 531 470 535 c 0
 453 538 393 537 367 534 c 0
 349 532 332 527 323 522 c 0
 314 517 304 506 299 492 c 0
 297 488 265 382 226 256 c 0
 186 129 153 26 151 22 c 0
 143 6 123 -4 106 1 c 0
 86 6 73 24 74 44 c 0
 75 51 85 86 190 421 c 0
 257 638 307 793 309 797 c 0
 314 806 324 814 335 818 c 0
EndSplineSet
EndChar

StartChar: i
Encoding: 105 105 71
Width: 273
VWidth: 910
Flags: HW
LayerCount: 2
Fore
SplineSet
351 757 m 0
 373 762 395 749 400 726 c 0
 407 701 387 675 360 675 c 0
 334 675 314 701 320 726 c 0
 325 741 336 753 351 757 c 0
305 613 m 0
 315 616 326 614 336 609 c 0
 343 605 348 599 353 590 c 0
 356 584 357 582 357 573 c 2
 357 564 l 1
 273 297 l 2
 227 150 189 27 187 24 c 0
 182 13 171 5 159 2 c 0
 138 -4 115 9 109 30 c 0
 106 44 100 23 193 319 c 0
 239 466 277 590 279 593 c 0
 284 602 294 610 305 613 c 0
EndSplineSet
EndChar

StartChar: j
Encoding: 106 106 72
Width: 364
VWidth: 910
Flags: HW
LayerCount: 2
Fore
SplineSet
477 757 m 0
 499 762 521 749 526 726 c 0
 533 701 513 675 487 675 c 0
 460 675 440 701 446 726 c 0
 451 741 462 753 477 757 c 0
431 613 m 0
 441 616 451 614 461 609 c 0
 468 605 474 599 479 590 c 0
 482 584 482 582 482 573 c 2
 482 564 l 1
 390 269 l 2
 340 107 296 -32 292 -40 c 0
 267 -113 239 -158 204 -182 c 0
 177 -200 146 -208 106 -210 c 0
 56 -211 19 -198 -2 -172 c 0
 -27 -140 -29 -93 -5 -9 c 0
 7 32 10 38 17 46 c 0
 37 66 72 59 84 33 c 0
 87 28 86 25 87 18 c 0
 87 9 87 8 81 -13 c 0
 66 -63 60 -95 61 -113 c 0
 62 -122 63 -122 74 -125 c 0
 88 -129 114 -129 132 -124 c 0
 140 -122 150 -119 157 -114 c 0
 175 -102 196 -68 214 -15 c 0
 216 -9 259 130 310 292 c 0
 360 454 403 590 405 593 c 0
 409 602 420 610 431 613 c 0
EndSplineSet
EndChar

StartChar: k
Encoding: 107 107 73
Width: 485
VWidth: 910
Flags: HW
LayerCount: 2
Fore
SplineSet
335 818 m 0
 344 820 356 819 365 814 c 0
 380 807 389 787 386 772 c 0
 386 769 360 686 330 588 c 0
 299 490 273 409 273 409 c 1
 273 409 343 463 428 529 c 0
 537 614 583 649 588 651 c 0
 613 664 641 648 646 621 c 0
 648 609 643 593 635 585 c 0
 632 583 572 536 500 480 c 0
 427 424 367 376 367 376 c 2
 366 375 386 309 417 213 c 0
 471 39 470 44 467 33 c 0
 462 10 439 -4 417 2 c 0
 405 5 395 13 390 23 c 0
 389 27 366 94 341 174 c 0
 316 254 296 319 296 319 c 2
 295 320 230 271 229 269 c 0
 228 267 212 213 191 147 c 0
 171 81 153 25 151 22 c 0
 143 6 123 -4 106 1 c 0
 86 6 73 24 74 44 c 0
 75 51 85 86 190 421 c 0
 257 638 307 793 309 797 c 0
 314 806 324 814 335 818 c 0
EndSplineSet
EndChar

StartChar: l
Encoding: 108 108 74
Width: 273
VWidth: 910
Flags: HW
LayerCount: 2
Fore
SplineSet
370 818 m 0
 379 820 391 819 400 814 c 0
 411 809 419 796 421 783 c 0
 422 778 422 775 420 769 c 0
 416 753 189 27 186 22 c 0
 178 6 157 -4 140 1 c 0
 120 6 107 24 108 44 c 0
 109 51 120 86 225 421 c 0
 292 638 341 793 343 797 c 0
 348 806 359 814 370 818 c 0
EndSplineSet
EndChar

StartChar: m
Encoding: 109 109 75
Width: 728
VWidth: 910
Flags: HW
LayerCount: 2
Fore
SplineSet
380 619 m 0
 393 620 424 620 434 619 c 0
 476 614 508 598 527 571 c 0
 530 567 532 563 532 563 c 2
 532 562 535 564 539 568 c 0
 567 593 603 612 644 617 c 0
 658 620 682 621 695 619 c 0
 744 614 780 592 796 557 c 0
 803 542 807 525 807 501 c 0
 807 466 799 423 782 360 c 0
 769 319 678 27 675 22 c 0
 670 12 661 5 649 2 c 0
 628 -4 605 9 599 30 c 0
 596 44 593 34 648 208 c 0
 696 363 706 392 711 417 c 0
 716 433 721 458 723 472 c 0
 725 486 725 514 723 520 c 0
 721 526 713 531 698 535 c 0
 688 537 663 537 650 534 c 0
 626 529 606 519 592 504 c 0
 577 488 558 456 543 421 c 0
 527 382 518 358 462 176 c 0
 437 95 415 25 413 22 c 0
 408 12 399 5 387 2 c 0
 366 -4 343 9 337 30 c 0
 334 44 331 34 386 208 c 0
 434 363 444 392 449 417 c 0
 454 433 459 458 461 472 c 0
 463 486 463 514 461 520 c 0
 459 526 451 531 436 535 c 0
 431 536 424 536 407 536 c 0
 382 536 371 536 356 531 c 0
 323 522 302 495 283 439 c 0
 280 432 251 336 216 227 c 0
 182 118 153 25 151 22 c 0
 143 6 123 -4 106 1 c 0
 86 6 73 24 74 44 c 0
 75 51 82 77 158 319 c 0
 204 466 243 590 245 593 c 0
 250 602 259 610 271 613 c 0
 283 617 298 612 308 604 c 2
 310 603 l 1
 319 606 l 2
 334 611 357 617 380 619 c 0
EndSplineSet
EndChar

StartChar: n
Encoding: 110 110 76
Width: 516
VWidth: 910
Flags: HW
LayerCount: 2
Fore
SplineSet
399 619 m 0
 412 620 454 620 463 619 c 0
 520 614 560 592 579 556 c 0
 584 545 586 539 590 524 c 0
 592 513 592 512 592 490 c 0
 592 470 592 463 590 451 c 0
 586 423 579 393 569 357 c 0
 557 318 466 27 463 22 c 0
 458 12 449 5 437 2 c 0
 416 -4 393 9 387 30 c 0
 384 44 381 34 436 208 c 0
 486 368 491 385 497 410 c 0
 509 457 512 494 507 514 c 0
 504 524 491 531 470 535 c 0
 458 537 421 538 402 536 c 0
 361 533 340 525 319 505 c 0
 304 489 294 470 282 436 c 0
 280 431 251 336 216 227 c 0
 182 118 153 25 151 22 c 0
 143 6 123 -4 106 1 c 0
 86 6 73 24 74 44 c 0
 75 51 82 77 158 319 c 0
 204 466 243 590 245 593 c 0
 248 598 255 606 261 609 c 0
 276 618 296 615 309 603 c 2
 313 600 l 1
 319 603 l 2
 337 611 370 618 399 619 c 0
EndSplineSet
EndChar

StartChar: o
Encoding: 111 111 77
Width: 576
VWidth: 910
Flags: HW
LayerCount: 2
Fore
SplineSet
429 619 m 0
 447 620 508 619 523 618 c 0
 574 612 607 599 631 575 c 0
 641 565 648 556 654 542 c 0
 674 502 673 446 653 370 c 0
 641 326 617 249 603 214 c 0
 566 115 522 57 459 25 c 0
 414 2 364 -6 288 -5 c 0
 250 -4 229 -2 205 4 c 0
 177 11 153 23 137 39 c 0
 127 49 121 58 115 72 c 0
 98 108 95 155 110 221 c 0
 119 261 148 355 166 403 c 0
 194 478 228 531 271 565 c 0
 311 597 362 614 429 619 c 0
502 536 m 0
 485 537 450 537 432 536 c 0
 399 534 372 528 350 517 c 0
 307 497 272 450 243 374 c 0
 231 341 208 268 198 230 c 0
 179 160 179 113 197 97 c 0
 212 83 244 77 299 77 c 0
 379 77 423 90 458 125 c 0
 484 152 504 186 525 242 c 0
 536 272 559 343 570 381 c 0
 590 453 590 501 572 517 c 0
 561 527 537 533 502 536 c 0
EndSplineSet
EndChar

StartChar: p
Encoding: 112 112 78
Width: 500
VWidth: 910
Flags: HW
LayerCount: 2
Fore
SplineSet
395 619 m 0
 410 620 459 619 470 618 c 0
 529 610 568 584 583 542 c 0
 596 505 593 457 575 386 c 0
 568 355 548 291 533 244 c 0
 496 132 457 68 407 34 c 0
 377 14 344 1 302 -4 c 0
 286 -6 228 -6 213 -4 c 0
 190 -1 172 4 157 11 c 0
 153 13 150 15 150 14 c 1
 149 14 136 -30 120 -82 c 0
 104 -134 89 -179 87 -183 c 0
 81 -196 66 -205 51 -205 c 0
 31 -205 14 -190 10 -169 c 0
 9 -164 9 -162 10 -157 c 0
 13 -147 242 588 245 593 c 0
 248 598 255 606 261 609 c 0
 276 617 296 615 309 603 c 2
 312 601 l 1
 319 603 l 2
 339 611 366 617 395 619 c 0
464 535 m 0
 453 536 410 537 394 536 c 0
 362 533 341 526 324 510 c 0
 307 495 295 472 282 437 c 0
 277 421 202 182 197 162 c 0
 184 120 183 93 191 86 c 0
 195 83 204 81 215 79 c 0
 228 77 279 77 293 79 c 0
 312 82 334 88 346 94 c 0
 373 108 393 131 415 172 c 0
 433 207 447 246 471 325 c 0
 498 413 507 450 507 486 c 0
 507 511 505 519 493 526 c 0
 488 529 474 533 464 535 c 0
EndSplineSet
EndChar

StartChar: q
Encoding: 113 113 79
Width: 500
VWidth: 910
Flags: HW
LayerCount: 2
Fore
SplineSet
408 619 m 0
 417 620 474 619 482 618 c 0
 504 615 522 611 537 603 c 2
 545 598 l 1
 549 603 l 2
 559 613 574 616 588 613 c 0
 600 609 610 602 615 590 c 0
 618 584 618 582 618 573 c 2
 618 563 l 1
 502 192 l 2
 436 -19 385 -181 383 -184 c 0
 378 -193 368 -200 358 -204 c 0
 348 -206 337 -204 328 -199 c 0
 313 -192 304 -172 307 -157 c 0
 308 -154 318 -118 332 -74 c 0
 346 -31 357 5 356 5 c 2
 356 5 354 4 351 4 c 0
 343 1 330 -2 316 -4 c 0
 299 -6 243 -6 228 -4 c 0
 173 2 137 22 117 56 c 0
 112 65 109 78 105 93 c 0
 103 104 103 105 103 128 c 0
 103 153 104 163 109 192 c 0
 114 222 124 257 142 314 c 0
 167 394 181 434 201 474 c 0
 217 506 229 525 249 548 c 0
 273 576 308 597 347 609 c 0
 364 614 386 618 408 619 c 0
479 535 m 0
 470 536 422 537 412 536 c 0
 386 534 362 529 347 521 c 0
 320 507 299 484 277 441 c 0
 260 407 245 367 220 287 c 0
 194 201 186 164 186 128 c 0
 186 103 187 95 199 88 c 0
 204 85 218 81 228 80 c 0
 241 77 275 76 294 78 c 0
 332 81 352 88 371 107 c 0
 386 122 398 142 410 176 c 0
 415 188 485 416 495 448 c 0
 508 492 511 521 502 528 c 0
 498 531 489 533 479 535 c 0
EndSplineSet
EndChar

StartChar: r
Encoding: 114 114 80
Width: 455
VWidth: 910
Flags: HW
LayerCount: 2
Fore
SplineSet
388 619 m 0
 399 620 462 620 476 619 c 0
 507 617 531 612 546 606 c 0
 568 597 582 581 589 557 c 0
 591 548 591 527 588 517 c 0
 584 502 576 490 565 485 c 0
 553 480 541 480 528 485 c 0
 513 493 504 510 505 526 c 0
 506 533 507 532 495 534 c 0
 471 538 394 538 374 535 c 0
 336 529 315 512 297 475 c 0
 294 469 290 458 287 452 c 0
 285 445 253 347 218 234 c 0
 183 120 153 25 151 22 c 0
 143 6 123 -4 106 1 c 0
 86 6 73 24 74 44 c 0
 75 51 82 77 158 319 c 0
 204 466 243 590 245 593 c 0
 250 602 259 610 271 613 c 0
 283 617 298 612 308 604 c 2
 310 603 l 1
 318 605 l 2
 336 612 361 618 388 619 c 0
EndSplineSet
EndChar

StartChar: s
Encoding: 115 115 81
Width: 516
VWidth: 910
Flags: HW
LayerCount: 2
Fore
SplineSet
396 619 m 0
 399 620 423 620 449 619 c 0
 498 619 511 618 531 614 c 0
 550 611 568 605 579 598 c 0
 613 578 625 537 610 490 c 0
 607 479 604 473 598 467 c 0
 590 460 583 457 573 456 c 0
 551 455 534 467 529 488 c 0
 527 495 528 500 530 510 c 0
 532 515 532 521 532 524 c 2
 533 529 l 1
 527 531 l 2
 512 536 487 537 441 537 c 0
 392 537 370 535 348 528 c 0
 324 520 310 507 296 484 c 0
 291 475 285 462 279 442 c 0
 273 423 272 422 272 414 c 0
 272 402 274 398 284 388 c 0
 299 373 319 362 365 347 c 0
 394 338 405 333 422 324 c 0
 446 313 462 302 477 288 c 0
 496 269 507 248 512 222 c 0
 514 212 514 210 514 198 c 0
 513 182 511 172 503 148 c 0
 488 100 472 71 448 47 c 0
 419 18 382 2 331 -4 c 0
 311 -6 220 -6 199 -4 c 0
 167 0 144 6 129 16 c 0
 101 32 88 66 93 103 c 0
 95 114 99 131 102 137 c 0
 106 144 113 150 121 155 c 0
 126 158 129 157 136 158 c 0
 154 159 169 151 176 135 c 0
 181 125 181 118 178 105 c 0
 176 100 176 94 176 90 c 2
 176 86 l 1
 181 84 l 2
 196 79 223 77 267 77 c 0
 331 77 355 81 379 96 c 0
 399 110 411 130 426 176 c 0
 431 191 431 192 431 200 c 0
 431 208 431 210 428 215 c 0
 423 227 409 237 390 248 c 0
 376 254 366 260 340 268 c 0
 310 278 300 282 282 290 c 0
 257 302 240 315 225 330 c 0
 194 361 182 401 191 441 c 0
 196 461 209 497 218 515 c 0
 252 582 306 614 396 619 c 0
EndSplineSet
EndChar

StartChar: t
Encoding: 116 116 82
Width: 364
VWidth: 910
Flags: HW
LayerCount: 2
Fore
SplineSet
415 818 m 0
 424 820 436 819 445 814 c 0
 460 807 469 787 466 772 c 0
 465 769 454 733 441 691 c 0
 428 650 418 615 418 615 c 2
 418 614 432 614 447 614 c 0
 479 614 484 614 492 609 c 0
 502 604 509 592 512 580 c 0
 515 564 507 544 492 537 c 0
 483 532 480 532 434 532 c 2
 391 532 l 1
 390 529 l 2
 390 527 355 414 312 277 c 0
 268 139 233 26 231 22 c 0
 226 12 217 5 205 2 c 0
 184 -4 161 9 155 30 c 0
 152 44 146 26 229 291 c 2
 305 532 l 1
 273 532 l 2
 255 532 240 532 238 533 c 0
 221 539 209 555 209 573 c 0
 209 590 221 607 238 613 c 0
 240 614 258 614 286 614 c 2
 330 615 l 1
 359 705 l 2
 374 754 388 795 390 798 c 0
 395 806 404 814 415 818 c 0
EndSplineSet
EndChar

StartChar: u
Encoding: 117 117 83
Width: 516
VWidth: 910
Flags: HW
LayerCount: 2
Fore
SplineSet
270 613 m 0
 280 616 291 614 301 609 c 0
 308 605 314 599 319 590 c 0
 322 584 322 582 322 573 c 2
 322 564 l 1
 275 415 l 2
 224 251 220 241 214 216 c 0
 199 163 195 121 201 100 c 0
 204 90 217 83 238 79 c 0
 257 76 307 77 330 80 c 0
 377 88 404 115 425 176 c 0
 427 181 457 277 492 387 c 0
 527 497 555 590 557 593 c 0
 560 598 567 606 573 609 c 0
 582 614 593 615 603 613 c 0
 615 609 626 602 631 590 c 0
 634 584 634 582 634 573 c 2
 634 564 l 1
 551 297 l 2
 505 150 466 27 464 24 c 0
 452 -1 420 -7 400 11 c 2
 395 15 l 1
 390 12 l 2
 375 6 352 -1 329 -4 c 0
 313 -6 263 -7 247 -5 c 0
 188 0 148 21 129 58 c 0
 124 69 122 75 118 90 c 0
 116 101 117 103 117 126 c 0
 117 151 117 157 122 183 c 0
 126 208 132 233 143 269 c 0
 155 309 242 588 245 593 c 0
 250 602 259 610 270 613 c 0
EndSplineSet
EndChar

StartChar: v
Encoding: 118 118 84
Width: 485
VWidth: 910
Flags: HW
LayerCount: 2
Fore
SplineSet
256 613 m 0
 261 614 271 615 276 613 c 0
 291 609 303 597 307 581 c 0
 308 576 307 569 290 341 c 0
 281 213 273 107 273 107 c 1
 273 107 334 217 409 352 c 0
 528 569 543 597 548 602 c 0
 563 617 586 618 603 606 c 0
 616 596 622 578 618 563 c 0
 616 558 585 500 468 288 c 0
 305 -7 316 11 304 5 c 0
 295 0 292 0 256 0 c 0
 219 0 216 0 207 5 c 0
 197 10 188 23 186 35 c 0
 185 40 189 86 204 306 c 0
 215 452 224 574 225 578 c 0
 228 595 240 608 256 613 c 0
EndSplineSet
EndChar

StartChar: w
Encoding: 119 119 85
Width: 758
VWidth: 910
Flags: HW
LayerCount: 2
Fore
SplineSet
225 613 m 0
 235 616 246 614 256 609 c 0
 263 605 268 599 273 590 c 0
 276 585 276 582 277 575 c 0
 277 570 271 477 262 337 c 0
 254 210 248 106 248 106 c 2
 248 105 310 215 386 351 c 0
 488 533 525 598 528 602 c 0
 535 609 547 614 558 614 c 0
 573 614 588 606 595 592 c 0
 600 580 601 599 585 340 c 0
 577 211 570 105 570 105 c 2
 571 105 632 215 707 350 c 0
 783 485 846 596 848 598 c 0
 854 607 866 613 878 614 c 0
 885 614 892 614 900 609 c 0
 908 605 913 599 918 590 c 0
 921 584 922 582 922 573 c 0
 922 563 921 562 918 556 c 0
 914 548 620 22 616 17 c 0
 611 10 602 4 593 1 c 0
 586 -1 521 -1 515 1 c 0
 508 3 501 7 496 12 c 0
 487 20 483 29 483 43 c 0
 483 48 488 128 494 222 c 0
 500 316 505 393 505 393 c 1
 505 393 457 309 399 205 c 0
 285 3 290 10 279 5 c 0
 270 0 267 0 231 0 c 0
 194 0 191 0 182 5 c 0
 171 10 163 23 161 35 c 0
 160 40 163 82 177 308 c 0
 187 455 194 577 195 581 c 0
 198 596 210 609 225 613 c 0
EndSplineSet
EndChar

StartChar: x
Encoding: 120 120 86
Width: 485
VWidth: 910
Flags: HW
LayerCount: 2
Fore
SplineSet
265 613 m 0
 274 615 286 614 295 609 c 0
 301 605 308 598 311 592 c 0
 314 587 321 562 339 493 c 2
 361 401 l 1
 364 403 l 1
 386 429 541 604 543 606 c 0
 544 607 548 609 551 610 c 0
 568 619 592 612 603 596 c 0
 608 588 610 583 609 573 c 0
 609 563 608 557 603 550 c 0
 601 547 552 493 495 428 c 0
 438 362 391 309 389 307 c 2
 387 304 l 1
 420 177 l 2
 455 40 454 42 451 30 c 0
 448 23 446 17 441 12 c 0
 420 -7 387 -2 374 23 c 0
 372 28 366 52 346 128 c 0
 332 183 320 228 320 228 c 2
 320 229 277 179 224 120 c 0
 171 60 127 10 126 9 c 0
 115 1 102 -2 90 2 c 0
 62 8 50 41 66 65 c 0
 67 67 119 126 182 197 c 0
 252 278 295 327 295 328 c 0
 295 329 281 382 264 448 c 2
 234 567 l 1
 234 575 l 2
 235 582 235 585 238 590 c 0
 243 601 253 609 265 613 c 0
EndSplineSet
EndChar

StartChar: y
Encoding: 121 121 87
Width: 485
VWidth: 910
Flags: HW
LayerCount: 2
Fore
SplineSet
256 613 m 0
 265 615 277 614 286 609 c 0
 292 606 298 599 302 593 c 0
 307 582 308 595 304 398 c 0
 302 301 300 214 300 208 c 2
 301 197 l 1
 422 397 l 2
 517 554 545 599 549 603 c 0
 563 618 586 618 603 606 c 0
 608 601 614 593 617 586 c 0
 619 580 619 566 617 560 c 0
 615 555 170 -180 164 -189 c 0
 158 -197 146 -204 134 -205 c 0
 103 -207 80 -173 95 -146 c 0
 96 -143 123 -98 156 -44 c 2
 214 54 l 1
 219 317 l 2
 223 506 225 581 226 584 c 0
 231 598 241 608 256 613 c 0
EndSplineSet
EndChar

StartChar: z
Encoding: 122 122 88
Width: 485
VWidth: 910
Flags: HW
LayerCount: 2
Fore
SplineSet
256 613 m 0
 260 614 293 614 423 614 c 2
 587 614 l 1
 592 612 l 2
 600 609 607 602 612 596 c 0
 617 588 619 583 618 573 c 0
 618 563 616 556 611 548 c 0
 608 545 514 440 400 313 c 2
 193 84 l 1
 307 83 l 2
 386 83 420 82 423 81 c 0
 441 75 452 60 452 41 c 0
 452 22 439 6 421 1 c 0
 416 0 387 0 256 0 c 0
 115 0 95 0 90 2 c 0
 62 9 50 41 66 65 c 0
 68 68 162 173 277 300 c 2
 484 532 l 1
 370 532 l 2
 287 532 257 532 254 533 c 0
 242 537 233 545 228 556 c 0
 225 561 226 562 226 573 c 0
 226 583 225 585 228 590 c 0
 233 601 244 609 256 613 c 0
EndSplineSet
EndChar

StartChar: braceleft
Encoding: 123 123 89
Width: 273
VWidth: 910
Flags: HW
LayerCount: 2
Fore
SplineSet
438 848 m 0
 446 849 459 849 465 848 c 0
 479 843 490 832 494 817 c 0
 496 809 496 798 492 791 c 0
 485 776 473 769 455 766 c 0
 437 764 425 753 411 726 c 0
 397 699 385 662 360 584 c 0
 340 518 325 483 309 452 c 0
 298 429 288 414 277 404 c 2
 272 400 l 1
 273 395 l 1
 282 370 277 328 258 259 c 0
 253 242 251 232 238 192 c 0
 216 124 208 88 205 61 c 2
 205 53 l 1
 211 52 l 2
 229 49 243 35 246 17 c 0
 249 0 239 -18 222 -26 c 2
 216 -29 l 1
 203 -29 l 2
 188 -29 180 -27 167 -22 c 0
 151 -14 139 -1 131 15 c 0
 124 30 123 34 123 56 c 0
 123 72 123 77 125 89 c 0
 131 124 139 155 159 219 c 0
 180 286 185 307 190 333 c 0
 193 345 196 367 195 368 c 0
 194 368 191 369 188 369 c 0
 184 370 180 371 176 372 c 0
 146 387 146 432 176 447 c 0
 181 449 185 450 192 451 c 0
 205 453 211 456 219 464 c 0
 225 470 231 478 238 493 c 0
 251 518 262 551 281 612 c 0
 300 674 313 710 324 735 c 0
 332 755 345 779 353 791 c 0
 373 821 405 842 438 848 c 0
EndSplineSet
EndChar

StartChar: bar
Encoding: 124 124 90
Width: 303
VWidth: 910
Flags: HW
LayerCount: 2
Fore
SplineSet
384 817 m 0
 411 824 439 802 436 775 c 0
 435 768 205 30 201 23 c 0
 190 2 165 -6 145 5 c 0
 131 12 122 30 123 45 c 0
 124 51 355 792 359 798 c 0
 364 807 373 814 384 817 c 0
EndSplineSet
EndChar

StartChar: braceright
Encoding: 125 125 91
Width: 273
VWidth: 910
Flags: HW
LayerCount: 2
Fore
SplineSet
300 847 m 0
 307 850 328 850 339 847 c 0
 360 842 378 827 389 810 c 0
 402 787 404 760 396 715 c 0
 391 687 382 658 362 592 c 0
 339 518 332 490 330 461 c 2
 330 451 l 1
 339 451 l 2
 354 449 366 441 372 427 c 0
 375 421 376 420 376 410 c 0
 376 400 375 398 372 392 c 0
 367 383 362 377 354 373 c 0
 348 369 344 369 333 368 c 0
 327 367 324 367 319 364 c 0
 307 358 300 351 290 335 c 0
 276 310 263 275 238 197 c 0
 215 125 204 95 189 63 c 0
 176 38 166 21 153 8 c 0
 129 -16 97 -30 66 -30 c 0
 51 -30 43 -26 34 -17 c 0
 19 -1 20 25 35 40 c 0
 43 47 52 52 65 53 c 0
 73 54 75 53 80 56 c 0
 94 63 103 74 115 100 c 0
 129 125 139 157 160 224 c 0
 181 290 192 320 206 350 c 0
 220 381 235 404 249 416 c 2
 254 420 l 1
 252 425 l 2
 248 436 248 444 248 461 c 0
 250 496 257 530 284 620 c 0
 302 678 307 699 312 723 c 0
 315 736 318 756 318 762 c 2
 318 766 l 1
 314 766 l 2
 309 766 299 769 294 772 c 0
 286 777 281 781 277 790 c 2
 273 797 l 1
 273 808 l 2
 273 818 273 820 276 826 c 0
 281 837 289 843 300 847 c 0
EndSplineSet
EndChar

StartChar: asciitilde
Encoding: 126 126 92
Width: 607
VWidth: 910
Flags: HW
LayerCount: 2
Fore
SplineSet
267 417 m 0
 281 418 335 418 347 417 c 0
 372 415 391 410 406 403 c 0
 421 396 431 387 437 373 c 0
 448 353 449 331 441 302 c 0
 437 287 436 284 438 283 c 0
 442 280 458 280 495 280 c 0
 538 280 548 281 564 286 c 0
 577 291 584 298 590 314 c 0
 595 325 598 332 603 337 c 0
 629 362 673 344 673 307 c 0
 673 299 669 286 662 271 c 0
 647 240 624 219 594 208 c 0
 569 200 551 198 505 197 c 0
 444 196 418 199 394 211 c 0
 379 218 368 227 362 241 c 0
 351 261 351 283 359 313 c 0
 363 327 362 330 361 331 c 0
 357 334 341 334 304 334 c 0
 261 334 251 334 235 329 c 0
 222 324 215 318 208 299 c 0
 203 287 201 283 196 278 c 0
 181 262 152 262 137 279 c 0
 129 288 127 296 127 309 c 0
 128 318 130 327 137 342 c 0
 149 368 167 389 190 400 c 0
 208 409 238 416 267 417 c 0
EndSplineSet
EndChar

StartChar: Adieresis
Encoding: 196 196 93
Width: 576
VWidth: 910
Flags: HW
LayerCount: 2
Fore
SplineSet
499 931 m 0
 521 936 543 923 548 900 c 0
 555 875 535 849 508 849 c 0
 482 849 462 875 468 900 c 0
 473 915 484 927 499 931 c 0
615 931 m 0
 637 936 659 923 664 900 c 0
 671 875 651 849 625 849 c 0
 598 849 578 875 584 900 c 0
 589 915 600 927 615 931 c 0
492 817 m 0
 499 820 563 820 570 817 c 0
 582 814 592 806 597 796 c 0
 602 784 605 818 573 411 c 0
 557 209 543 39 543 35 c 0
 542 31 541 27 540 24 c 0
 534 10 517 0 502 0 c 0
 483 0 466 14 461 34 c 0
 460 39 461 42 471 167 c 0
 476 238 481 296 481 296 c 2
 481 297 437 297 383 297 c 2
 287 297 l 1
 210 157 l 2
 143 34 134 18 129 13 c 0
 113 -3 87 -4 70 13 c 0
 60 23 55 41 60 55 c 0
 61 57 154 226 265 431 c 0
 443 756 468 802 473 806 c 0
 478 811 485 815 492 817 c 0
500 545 m 0
 507 636 513 711 513 711 c 2
 512 711 332 380 332 380 c 2
 332 379 487 380 487 380 c 1
 487 380 494 454 500 545 c 0
EndSplineSet
EndChar

StartChar: Ccedilla
Encoding: 199 199 94
Width: 546
VWidth: 910
Flags: HW
LayerCount: 2
Fore
SplineSet
494 824 m 0
 504 825 577 824 592 823 c 0
 660 817 697 800 714 765 c 0
 722 750 726 734 725 713 c 0
 724 698 722 684 717 668 c 0
 712 655 710 648 705 643 c 0
 685 622 651 628 637 654 c 0
 634 659 635 661 634 668 c 0
 634 676 633 678 636 689 c 0
 641 703 643 716 642 722 c 0
 641 727 641 727 636 729 c 0
 627 734 609 738 587 740 c 0
 569 742 514 742 502 741 c 0
 453 736 412 716 386 683 c 0
 364 656 342 615 320 563 c 0
 301 515 274 433 244 331 c 0
 213 226 202 157 208 117 c 0
 211 97 228 85 258 79 c 0
 274 76 338 77 369 81 c 0
 394 84 416 89 429 96 c 0
 445 105 459 125 468 151 c 0
 476 172 480 179 493 185 c 0
 500 189 501 189 512 189 c 0
 522 189 522 189 529 185 c 0
 544 178 553 163 553 147 c 0
 553 138 545 118 534 96 c 0
 508 43 470 16 405 3 c 0
 399 1 389 0 384 -1 c 2
 375 -2 l 1
 375 -14 l 2
 374 -31 370 -45 362 -62 c 0
 348 -91 322 -116 293 -129 c 0
 273 -137 246 -141 233 -138 c 0
 211 -132 197 -111 202 -89 c 0
 206 -71 223 -56 242 -56 c 0
 266 -56 289 -36 292 -12 c 0
 292 -6 294 -5 274 -5 c 0
 216 -2 170 19 145 56 c 0
 135 71 130 85 126 105 c 0
 124 114 124 118 124 142 c 0
 124 172 124 181 129 214 c 0
 139 270 156 328 196 455 c 0
 226 550 245 600 271 654 c 0
 287 686 305 714 320 735 c 0
 347 768 382 793 426 809 c 0
 444 815 472 822 494 824 c 0
EndSplineSet
EndChar

StartChar: Odieresis
Encoding: 214 214 95
Width: 698
VWidth: 910
Flags: HW
LayerCount: 2
Fore
SplineSet
560 931 m 0
 582 936 604 923 609 900 c 0
 616 875 596 849 569 849 c 0
 543 849 523 875 529 900 c 0
 534 915 545 927 560 931 c 0
676 931 m 0
 698 936 720 923 725 900 c 0
 732 875 712 849 686 849 c 0
 659 849 639 875 645 900 c 0
 650 915 661 927 676 931 c 0
559 824 m 0
 573 825 619 825 634 824 c 0
 673 821 709 816 734 806 c 0
 747 801 766 791 776 784 c 0
 787 777 801 762 808 752 c 0
 823 730 833 699 836 665 c 0
 838 650 838 618 836 602 c 0
 831 569 824 533 812 489 c 0
 797 437 762 327 747 286 c 0
 685 119 610 38 492 8 c 0
 457 -1 424 -4 374 -5 c 0
 293 -6 240 2 199 23 c 0
 184 31 172 39 161 51 c 0
 149 62 142 72 135 87 c 0
 121 114 116 146 117 187 c 0
 118 209 118 221 123 246 c 0
 131 292 141 332 169 421 c 0
 202 524 218 570 243 618 c 0
 263 659 283 687 309 718 c 0
 367 785 443 819 559 824 c 0
630 741 m 0
 615 742 576 742 563 741 c 0
 518 739 492 735 463 725 c 0
 446 720 426 710 413 701 c 0
 372 674 336 625 306 557 c 0
 288 516 275 480 248 394 c 0
 217 296 207 256 201 210 c 0
 199 194 199 163 201 152 c 0
 206 117 219 101 253 90 c 0
 279 81 321 76 373 77 c 0
 426 79 457 83 492 95 c 0
 508 100 529 110 542 118 c 0
 591 151 631 213 667 309 c 0
 684 354 720 466 734 519 c 0
 749 571 754 607 754 641 c 0
 754 667 752 682 745 697 c 0
 732 722 696 737 630 741 c 0
EndSplineSet
EndChar

StartChar: Udieresis
Encoding: 220 220 96
Width: 607
VWidth: 910
Flags: HW
LayerCount: 2
Fore
SplineSet
514 931 m 0
 536 936 558 923 563 900 c 0
 570 875 550 849 523 849 c 0
 497 849 477 875 483 900 c 0
 488 915 499 927 514 931 c 0
631 931 m 0
 653 936 675 923 680 900 c 0
 687 875 667 849 641 849 c 0
 614 849 594 875 600 900 c 0
 605 915 616 927 631 931 c 0
335 818 m 0
 344 820 356 819 365 814 c 0
 376 809 384 796 386 783 c 0
 387 778 387 775 385 769 c 0
 384 764 342 630 292 469 c 0
 241 307 199 169 197 162 c 0
 192 142 190 132 190 119 c 0
 189 101 193 95 206 89 c 0
 224 81 254 77 315 77 c 0
 390 77 422 82 452 97 c 0
 484 113 504 140 521 191 c 0
 524 196 566 334 617 496 c 0
 671 668 710 793 712 797 c 0
 718 810 733 819 748 819 c 0
 768 819 785 804 789 783 c 0
 790 778 790 775 788 769 c 0
 786 760 604 179 599 164 c 0
 581 111 557 73 527 48 c 0
 488 15 440 -1 369 -5 c 0
 348 -6 282 -6 261 -5 c 0
 221 -2 193 4 170 15 c 0
 135 32 114 57 108 96 c 0
 106 105 106 109 106 123 c 0
 107 146 112 166 121 201 c 0
 135 245 306 792 309 797 c 0
 314 806 324 814 335 818 c 0
EndSplineSet
EndChar

StartChar: adieresis
Encoding: 228 228 97
Width: 516
VWidth: 910
Flags: HW
LayerCount: 2
Fore
SplineSet
405 726 m 0
 427 731 449 718 454 695 c 0
 461 670 441 644 414 644 c 0
 388 644 368 670 374 695 c 0
 379 710 390 722 405 726 c 0
521 726 m 0
 543 731 565 718 570 695 c 0
 577 670 557 644 530 644 c 0
 504 644 484 670 490 695 c 0
 495 710 506 722 521 726 c 0
417 619 m 0
 419 620 435 620 453 619 c 0
 488 619 502 618 520 613 c 0
 533 610 540 608 551 602 c 2
 560 597 l 1
 564 602 l 2
 574 613 589 617 603 613 c 0
 615 609 626 602 631 590 c 0
 634 584 634 582 634 573 c 2
 634 564 l 1
 551 297 l 2
 505 150 466 27 464 24 c 0
 452 -1 420 -7 399 11 c 2
 395 15 l 1
 388 12 l 2
 372 5 351 -1 327 -4 c 0
 308 -6 247 -6 231 -4 c 0
 190 2 163 15 143 35 c 0
 122 56 113 81 111 119 c 0
 111 139 112 155 117 180 c 0
 123 217 131 249 156 328 c 0
 179 400 191 435 209 471 c 0
 233 520 258 554 289 577 c 0
 318 599 360 613 403 618 c 0
 408 619 415 619 417 619 c 0
477 536 m 0
 465 537 429 537 421 536 c 0
 367 532 337 517 312 482 c 0
 287 449 267 402 242 326 c 0
 208 222 199 181 195 142 c 0
 193 120 195 101 200 95 c 0
 205 89 217 83 235 80 c 0
 256 76 309 76 331 81 c 0
 377 90 402 115 424 174 c 0
 429 189 511 449 516 466 c 0
 521 484 522 492 522 506 c 0
 522 516 522 518 520 522 c 0
 518 527 514 528 509 531 c 0
 501 534 492 535 477 536 c 0
EndSplineSet
EndChar

StartChar: ccedilla
Encoding: 231 231 98
Width: 516
VWidth: 910
Flags: HW
LayerCount: 2
Fore
SplineSet
417 619 m 0
 426 620 497 619 510 618 c 0
 541 614 564 608 579 598 c 0
 613 578 625 537 610 490 c 0
 607 479 604 473 598 467 c 0
 590 460 583 457 573 456 c 0
 551 455 534 467 529 488 c 0
 527 495 528 500 530 510 c 0
 532 515 532 521 532 524 c 2
 533 529 l 1
 527 531 l 2
 511 536 479 538 440 537 c 0
 413 536 402 536 386 532 c 0
 340 521 314 496 284 436 c 0
 266 400 254 365 226 274 c 0
 206 209 198 176 195 142 c 0
 193 120 195 101 200 95 c 0
 205 89 219 83 238 79 c 0
 246 78 252 78 283 78 c 0
 321 78 336 79 356 83 c 0
 369 85 378 87 385 92 c 0
 395 97 405 110 411 127 c 0
 413 132 414 136 416 139 c 0
 419 144 426 151 433 155 c 0
 438 158 441 157 448 158 c 0
 458 158 466 157 473 152 c 0
 485 145 492 131 492 117 c 0
 492 109 484 86 476 71 c 0
 457 38 431 18 396 7 c 0
 388 4 364 -1 361 -1 c 0
 360 -1 360 -7 360 -13 c 0
 359 -32 356 -45 347 -63 c 0
 340 -78 332 -88 320 -100 c 0
 301 -119 277 -132 252 -137 c 0
 241 -140 225 -140 219 -138 c 0
 198 -133 183 -112 187 -92 c 0
 191 -71 208 -56 228 -56 c 0
 241 -56 252 -51 262 -41 c 0
 270 -33 276 -24 277 -14 c 0
 278 -10 278 -7 278 -6 c 1
 277 -6 268 -5 259 -5 c 0
 204 -3 168 10 143 35 c 0
 122 56 113 81 111 119 c 0
 111 139 112 155 117 180 c 0
 123 217 131 249 156 328 c 0
 179 400 191 435 209 471 c 0
 232 517 258 551 286 574 c 0
 306 589 332 603 360 610 c 0
 378 615 390 617 417 619 c 0
EndSplineSet
EndChar

StartChar: odieresis
Encoding: 246 246 99
Width: 576
VWidth: 910
Flags: HW
LayerCount: 2
Fore
SplineSet
435 726 m 0
 457 731 479 718 484 695 c 0
 491 670 471 644 444 644 c 0
 418 644 398 670 404 695 c 0
 409 710 420 722 435 726 c 0
551 726 m 0
 573 731 595 718 600 695 c 0
 607 670 587 644 560 644 c 0
 534 644 514 670 520 695 c 0
 525 710 536 722 551 726 c 0
429 619 m 0
 447 620 508 619 523 618 c 0
 574 612 607 599 631 575 c 0
 641 565 648 556 654 542 c 0
 674 502 673 446 653 370 c 0
 641 326 617 249 603 214 c 0
 566 115 522 57 459 25 c 0
 414 2 364 -6 288 -5 c 0
 250 -4 229 -2 205 4 c 0
 177 11 153 23 137 39 c 0
 127 49 121 58 115 72 c 0
 98 108 95 155 110 221 c 0
 119 261 148 355 166 403 c 0
 194 478 228 531 271 565 c 0
 311 597 362 614 429 619 c 0
502 536 m 0
 485 537 450 537 432 536 c 0
 399 534 372 528 350 517 c 0
 307 497 272 450 243 374 c 0
 231 341 208 268 198 230 c 0
 179 160 179 113 197 97 c 0
 212 83 244 77 299 77 c 0
 379 77 423 90 458 125 c 0
 484 152 504 186 525 242 c 0
 536 272 559 343 570 381 c 0
 590 453 590 501 572 517 c 0
 561 527 537 533 502 536 c 0
EndSplineSet
EndChar

StartChar: udieresis
Encoding: 252 252 100
Width: 516
VWidth: 910
Flags: HW
LayerCount: 2
Fore
SplineSet
405 726 m 0
 427 731 449 718 454 695 c 0
 461 670 441 644 414 644 c 0
 388 644 368 670 374 695 c 0
 379 710 390 722 405 726 c 0
521 726 m 0
 543 731 565 718 570 695 c 0
 577 670 557 644 530 644 c 0
 504 644 484 670 490 695 c 0
 495 710 506 722 521 726 c 0
270 613 m 0
 280 616 291 614 301 609 c 0
 308 605 314 599 319 590 c 0
 322 584 322 582 322 573 c 2
 322 564 l 1
 275 415 l 2
 224 251 220 241 214 216 c 0
 199 163 195 121 201 100 c 0
 204 90 217 83 238 79 c 0
 257 76 307 77 330 80 c 0
 377 88 404 115 425 176 c 0
 427 181 457 277 492 387 c 0
 527 497 555 590 557 593 c 0
 560 598 567 606 573 609 c 0
 582 614 593 615 603 613 c 0
 615 609 626 602 631 590 c 0
 634 584 634 582 634 573 c 2
 634 564 l 1
 551 297 l 2
 505 150 466 27 464 24 c 0
 452 -1 420 -7 400 11 c 2
 395 15 l 1
 390 12 l 2
 375 6 352 -1 329 -4 c 0
 313 -6 263 -7 247 -5 c 0
 188 0 148 21 129 58 c 0
 124 69 122 75 118 90 c 0
 116 101 117 103 117 126 c 0
 117 151 117 157 122 183 c 0
 126 208 132 233 143 269 c 0
 155 309 242 588 245 593 c 0
 250 602 259 610 270 613 c 0
EndSplineSet
EndChar

StartChar: degree
Encoding: 176 176 101
Width: 425
VWidth: 910
Flags: HW
LayerCount: 2
Fore
SplineSet
411 818 m 0
 429 819 498 819 513 817 c 0
 538 813 558 807 573 797 c 0
 592 784 605 768 611 745 c 0
 613 737 613 735 613 720 c 0
 613 705 613 701 611 690 c 0
 604 656 589 613 576 590 c 0
 549 538 507 511 441 503 c 0
 430 502 419 502 383 502 c 0
 332 501 321 503 300 508 c 0
 260 519 236 540 227 575 c 0
 225 583 225 586 225 601 c 0
 224 619 225 624 231 648 c 0
 242 688 256 723 271 746 c 0
 300 791 345 813 411 818 c 0
494 735 m 0
 479 736 430 736 415 735 c 0
 377 732 355 722 340 700 c 0
 334 690 327 678 319 655 c 0
 312 631 308 616 307 605 c 0
 306 595 307 594 312 591 c 0
 323 586 343 584 382 584 c 0
 423 584 443 587 461 593 c 0
 474 597 481 601 489 609 c 0
 501 621 508 635 517 663 c 0
 527 693 532 716 531 724 c 0
 530 728 529 727 525 730 c 0
 519 733 509 734 494 735 c 0
EndSplineSet
EndChar

StartChar: grave
Encoding: 96 96 102
Width: 152
VWidth: 910
Flags: HW
LayerCount: 2
Fore
SplineSet
313 818 m 0
 321 820 339 820 348 817 c 0
 373 811 393 791 400 766 c 0
 402 759 401 756 401 741 c 0
 401 726 402 722 400 711 c 0
 395 686 384 647 379 638 c 0
 372 623 357 615 341 615 c 0
 322 615 305 629 301 649 c 0
 299 657 301 663 306 682 c 0
 312 702 318 723 319 730 c 2
 319 736 l 1
 312 737 l 2
 288 741 273 764 279 787 c 0
 283 803 296 815 313 818 c 0
EndSplineSet
EndChar

StartChar: quotesingle
Encoding: 39 39 103
Width: 121
VWidth: 910
Flags: HW
LayerCount: 2
Fore
SplineSet
293 817 m 0
 320 824 348 802 345 775 c 0
 344 768 306 645 302 637 c 0
 298 630 291 624 283 619 c 0
 277 616 276 616 266 616 c 0
 256 616 254 616 248 619 c 0
 232 627 221 646 225 662 c 0
 227 671 265 793 268 798 c 0
 273 807 282 814 293 817 c 0
EndSplineSet
EndChar

StartChar: Aring
Encoding: 197 197 104
Width: 576
VWidth: 910
Flags: HW
LayerCount: 2
Fore
SplineSet
578 1019 m 0
 585 1020 618 1020 626 1019 c 0
 651 1014 666 1002 671 981 c 0
 673 974 672 959 669 949 c 0
 664 925 653 900 645 888 c 0
 633 871 616 860 593 855 c 0
 587 854 582 854 562 854 c 0
 539 854 536 854 529 856 c 0
 517 859 509 862 503 868 c 0
 493 878 489 891 490 907 c 0
 491 918 493 926 499 947 c 0
 509 978 520 993 537 1005 c 0
 549 1012 561 1017 578 1019 c 0
620 973 m 0
 613 974 586 974 578 973 c 0
 575 972 570 971 566 969 c 0
 555 964 550 955 542 930 c 0
 537 916 534 902 535 901 c 0
 536 899 549 898 562 898 c 0
 600 898 607 904 620 942 c 0
 625 956 627 970 626 972 c 0
 625 972 623 973 620 973 c 0
492 817 m 0
 499 820 563 820 570 817 c 0
 582 814 592 806 597 796 c 0
 602 784 605 818 573 411 c 0
 557 209 543 39 543 35 c 0
 542 31 541 27 540 24 c 0
 534 10 517 0 502 0 c 0
 483 0 466 14 461 34 c 0
 460 39 461 42 471 167 c 0
 476 238 481 296 481 296 c 2
 481 297 437 297 383 297 c 2
 287 297 l 1
 210 157 l 2
 143 34 134 18 129 13 c 0
 113 -3 87 -4 70 13 c 0
 60 23 55 41 60 55 c 0
 61 57 154 226 265 431 c 0
 443 756 468 802 473 806 c 0
 478 811 485 815 492 817 c 0
500 545 m 0
 507 636 513 711 513 711 c 2
 512 711 332 380 332 380 c 2
 332 379 487 380 487 380 c 1
 487 380 494 454 500 545 c 0
EndSplineSet
EndChar

StartChar: AE
Encoding: 198 198 105
Width: 698
VWidth: 910
Flags: HW
LayerCount: 2
Fore
SplineSet
553 817 m 0
 560 820 858 820 865 818 c 0
 877 814 887 807 892 795 c 0
 895 789 896 787 896 778 c 0
 896 768 895 767 892 761 c 0
 887 752 882 746 875 742 c 0
 864 737 871 736 741 736 c 2
 623 736 l 1
 620 727 l 2
 618 722 598 659 575 585 c 2
 533 452 l 1
 625 451 l 2
 691 451 718 451 721 450 c 0
 733 446 741 438 746 427 c 0
 749 422 750 421 750 411 c 0
 750 400 749 398 746 393 c 0
 741 382 733 374 721 370 c 0
 718 369 689 369 613 369 c 2
 508 369 l 1
 463 227 l 2
 438 149 419 84 419 84 c 2
 419 83 466 83 524 83 c 0
 638 83 634 83 644 78 c 0
 658 71 665 57 665 41 c 0
 665 22 652 6 634 1 c 0
 629 0 604 0 493 0 c 0
 344 0 352 0 342 5 c 0
 327 12 318 32 321 47 c 0
 321 51 339 109 360 175 c 2
 399 297 l 1
 354 297 l 1
 309 297 l 1
 221 157 l 2
 159 58 133 17 129 13 c 0
 113 -3 87 -4 70 13 c 0
 59 24 56 41 61 56 c 0
 65 64 529 802 534 807 c 0
 539 812 547 815 553 817 c 0
455 477 m 2
 471 531 485 574 485 574 c 2
 485 575 461 539 433 494 c 0
 405 449 377 405 372 396 c 2
 361 380 l 1
 393 380 l 1
 424 380 l 1
 455 477 l 2
EndSplineSet
EndChar

StartChar: Oslash
Encoding: 216 216 106
Width: 698
VWidth: 910
Flags: HW
LayerCount: 2
Fore
SplineSet
559 824 m 0
 573 825 619 825 634 824 c 0
 673 821 709 816 734 806 c 0
 745 802 763 792 771 787 c 2
 777 783 l 1
 791 797 l 2
 806 812 810 815 821 818 c 0
 841 823 863 810 869 790 c 0
 871 784 871 771 869 765 c 0
 866 757 862 752 844 733 c 2
 826 715 l 1
 829 707 l 2
 835 687 838 663 837 634 c 0
 836 593 828 550 812 489 c 0
 797 437 762 327 747 286 c 0
 685 119 610 38 492 8 c 0
 457 -1 424 -4 374 -5 c 0
 293 -6 241 2 200 23 c 0
 194 26 187 30 183 32 c 2
 177 36 l 1
 164 23 l 2
 149 8 144 4 135 1 c 0
 125 -1 114 0 105 5 c 0
 95 10 87 23 84 35 c 0
 82 46 86 59 94 68 c 0
 96 71 104 80 112 88 c 2
 127 105 l 1
 125 112 l 2
 119 132 116 157 117 187 c 0
 118 209 118 221 123 246 c 0
 131 292 141 332 169 421 c 0
 202 524 218 570 243 618 c 0
 263 659 283 687 309 718 c 0
 367 785 443 819 559 824 c 0
630 741 m 0
 615 742 576 742 563 741 c 0
 518 739 492 735 463 725 c 0
 446 720 426 710 413 701 c 0
 372 674 336 625 306 557 c 0
 288 516 275 480 248 394 c 0
 222 309 212 275 206 236 c 0
 202 217 198 180 199 180 c 0
 200 180 717 721 718 722 c 2
 718 722 716 723 712 725 c 0
 693 733 666 739 630 741 c 0
754 624 m 0
 755 631 755 638 755 639 c 1
 754 639 237 98 236 97 c 0
 236 96 245 93 255 89 c 0
 280 81 322 76 373 77 c 0
 426 79 457 83 492 95 c 0
 508 100 529 110 542 118 c 0
 591 151 631 213 667 309 c 0
 680 341 702 408 721 472 c 0
 741 538 751 583 754 624 c 0
EndSplineSet
EndChar

StartChar: aring
Encoding: 229 229 107
Width: 516
VWidth: 910
Flags: HW
LayerCount: 2
Fore
SplineSet
481 814 m 0
 491 815 522 815 532 814 c 0
 553 810 565 802 572 787 c 0
 580 772 579 755 568 722 c 0
 563 706 559 697 554 689 c 0
 540 665 522 654 495 650 c 0
 482 648 453 648 441 649 c 0
 416 654 402 665 397 686 c 0
 395 694 396 708 399 721 c 0
 403 736 411 760 416 769 c 0
 429 794 451 810 481 814 c 0
530 767 m 0
 526 769 490 769 484 768 c 0
 470 766 462 760 456 748 c 0
 452 741 445 717 443 708 c 0
 440 698 440 695 443 695 c 0
 444 694 453 695 462 694 c 0
 497 693 508 698 517 715 c 0
 521 722 528 746 530 755 c 0
 533 765 533 767 530 767 c 0
417 619 m 0
 419 620 435 620 453 619 c 0
 488 619 502 618 520 613 c 0
 533 610 540 608 551 602 c 2
 560 597 l 1
 564 602 l 2
 574 613 589 617 603 613 c 0
 615 609 626 602 631 590 c 0
 634 584 634 582 634 573 c 2
 634 564 l 1
 551 297 l 2
 505 150 466 27 464 24 c 0
 452 -1 420 -7 399 11 c 2
 395 15 l 1
 388 12 l 2
 372 5 351 -1 327 -4 c 0
 308 -6 247 -6 231 -4 c 0
 190 2 163 15 143 35 c 0
 122 56 113 81 111 119 c 0
 111 139 112 155 117 180 c 0
 123 217 131 249 156 328 c 0
 179 400 191 435 209 471 c 0
 233 520 258 554 289 577 c 0
 318 599 360 613 403 618 c 0
 408 619 415 619 417 619 c 0
477 536 m 0
 465 537 429 537 421 536 c 0
 367 532 337 517 312 482 c 0
 287 449 267 402 242 326 c 0
 208 222 199 181 195 142 c 0
 193 120 195 101 200 95 c 0
 205 89 217 83 235 80 c 0
 256 76 309 76 331 81 c 0
 377 90 402 115 424 174 c 0
 429 189 511 449 516 466 c 0
 521 484 522 492 522 506 c 0
 522 516 522 518 520 522 c 0
 518 527 514 528 509 531 c 0
 501 534 492 535 477 536 c 0
EndSplineSet
EndChar

StartChar: ae
Encoding: 230 230 108
Width: 576
VWidth: 910
Flags: HW
LayerCount: 2
Fore
SplineSet
310 613 m 0
 325 614 372 614 385 613 c 0
 411 611 432 605 447 594 c 0
 453 589 462 581 466 576 c 2
 469 573 l 1
 475 579 l 2
 495 594 519 605 544 610 c 0
 608 625 665 601 687 553 c 0
 703 516 698 455 667 348 c 0
 656 310 647 280 644 275 c 0
 639 266 629 258 618 254 c 0
 613 253 594 253 512 253 c 2
 411 253 l 1
 409 246 l 2
 399 213 391 183 386 162 c 0
 379 125 377 91 382 86 c 0
 385 82 393 80 400 78 c 0
 413 76 449 77 466 81 c 0
 491 86 501 94 512 127 c 0
 515 133 517 141 519 144 c 0
 526 158 545 166 560 163 c 0
 581 159 597 140 595 119 c 0
 594 113 589 98 584 84 c 0
 564 36 532 9 483 0 c 0
 464 -5 453 -5 423 -5 c 0
 392 -6 384 -4 367 2 c 0
 348 8 330 20 319 33 c 2
 315 38 l 1
 306 31 l 2
 271 1 230 -12 189 -7 c 0
 182 -6 170 -6 163 -5 c 0
 131 -3 108 4 90 18 c 0
 65 37 54 66 55 106 c 0
 56 137 65 175 89 247 c 0
 123 347 162 394 231 409 c 0
 253 414 290 417 301 414 c 0
 318 409 338 411 360 422 c 0
 371 427 376 433 381 445 c 0
 392 466 403 511 400 522 c 0
 399 526 400 527 395 528 c 0
 386 531 369 532 340 532 c 0
 305 531 289 527 277 522 c 0
 271 518 264 511 259 497 c 0
 254 485 250 478 244 473 c 0
 237 468 229 466 221 465 c 0
 196 463 175 484 177 509 c 0
 178 518 182 529 190 544 c 0
 212 589 247 608 310 613 c 0
598 529 m 0
 592 532 576 533 566 531 c 0
 551 527 535 521 523 511 c 0
 502 496 482 458 458 396 c 0
 453 382 437 338 437 336 c 2
 507 336 l 1
 577 336 l 1
 580 343 l 2
 594 389 607 443 612 475 c 0
 614 491 614 515 612 520 c 0
 609 524 604 527 598 529 c 0
292 330 m 0
 279 333 255 331 239 326 c 0
 228 321 221 318 213 309 c 0
 196 292 182 265 167 219 c 0
 152 174 143 141 139 122 c 0
 138 112 137 92 138 87 c 0
 140 82 153 78 176 77 c 0
 184 77 193 77 197 76 c 0
 216 72 239 80 257 98 c 0
 266 107 273 117 280 132 c 0
 289 149 296 164 318 230 c 0
 319 233 321 243 323 251 c 0
 326 258 333 281 338 298 c 0
 343 316 348 330 348 330 c 2
 348 331 343 331 338 330 c 0
 325 329 303 328 292 330 c 0
EndSplineSet
EndChar

StartChar: oslash
Encoding: 248 248 109
Width: 576
VWidth: 910
Flags: HW
LayerCount: 2
Fore
SplineSet
429 619 m 0
 447 620 508 619 523 618 c 0
 555 614 575 609 597 599 c 2
 606 594 l 1
 613 601 l 2
 626 613 639 618 654 613 c 0
 670 609 681 596 684 580 c 0
 687 565 682 554 668 539 c 2
 660 530 l 1
 662 521 l 2
 667 506 667 496 668 480 c 0
 669 455 665 427 658 393 c 0
 646 341 612 232 593 186 c 0
 558 104 515 54 459 25 c 0
 414 2 364 -6 288 -5 c 0
 250 -4 229 -2 205 4 c 0
 191 8 183 10 171 15 c 2
 162 20 l 1
 156 14 l 2
 143 2 130 -3 115 2 c 0
 99 6 87 19 84 35 c 0
 81 50 86 61 100 76 c 2
 108 85 l 1
 106 94 l 2
 101 109 101 119 100 135 c 0
 99 181 109 232 144 338 c 0
 160 391 172 420 187 452 c 0
 210 500 238 539 271 565 c 0
 311 597 362 614 429 619 c 0
515 535 m 0
 502 536 447 537 432 536 c 0
 375 532 339 519 310 489 c 0
 276 455 254 410 226 322 c 0
 201 244 189 199 185 168 c 2
 184 162 l 1
 193 170 l 1
 236 214 543 530 543 531 c 1
 542 531 524 534 515 535 c 0
583 449 m 0
 583 451 584 452 584 452 c 2
 583 452 225 85 225 84 c 1
 226 84 244 80 254 79 c 0
 269 77 310 77 331 78 c 0
 392 82 427 95 458 125 c 0
 490 158 513 201 540 285 c 0
 566 365 580 418 583 449 c 0
EndSplineSet
EndChar
